<ttFont>
          <CharString index="0">
            427 hmoveto
            74 382 hlineto
            130 -52 86 -147 -120 -122 -56 0 vhcurveto
            31 -85 rlineto
            0 113 45 108 22 22 -3 -15 12 vhcurveto
            15 -20 2 -41 -59 vvcurveto
            0 -52 1 -44 -147 -96 -46 -147 vhcurveto
            return
          </CharString>
          <CharString index="1">
            340 -13 rmoveto
            151 125 69 295 293 -125 68 -151 -75 callsubr
            hvcurveto
            104 vmoveto
            -88 callsubr
            return
          </CharString>
          <CharString index="2">
            490 123 rmoveto
            -92 callsubr
            -139 -109 -72 -233 -225 101 -81 149 108 98 48 0 vhcurveto
            -334 302 -56 callsubr
            -56 -105 1 hvcurveto
            return
          </CharString>
          <CharString index="3">
            300 -13 rmoveto
            179 57 117 188 188 -57 118 -179 -76 callsubr
            hvcurveto
            92 vmoveto
            -89 callsubr
            return
          </CharString>
          <CharString index="4">
            97 hmoveto
            118 268 hlineto
            110 -4 136 -264 rlineto
            137 hlineto
            -163 275 rlineto
            5 vlineto
            95 27 51 67 113 vvcurveto
            164 -93 61 -148 -84 -133 -11 -3 -24 vhcurveto
            3 -370 rlineto
            113 283 rmoveto
            4 30 49 5 54 hhcurveto
            46 26 -6 -16 15 hvcurveto
            14 -16 10 -31 -63 vvcurveto
            -89 -22 -40 -90 -41 -48 4 5 -44 vhcurveto
            return
          </CharString>
          <CharString index="5">
            -3 hmoveto
            121 hlineto
            45 172 rlineto
            208 hlineto
            44 -172 rlineto
            121 hlineto
            -198 56 callsubr
            -142 hlineto
            -11 -429 rmoveto
            79 326 rlineto
            6 hlineto
            79 -326 rlineto
            return
          </CharString>
          <CharString index="6">
            hstem
            62 122 230 118 vstem
            -105 callsubr
            return
          </CharString>
          <CharString index="7">
            -20 -23 callsubr
            hintmask 01111110
            -107 callsubr
            hintmask 10111110
            -70 callsubr
            hintmask 01111110
            -26 67 rmoveto
            hintmask 10111110
            -94 callsubr
            return
          </CharString>
          <CharString index="8">
            -29 callsubr
            -106 callsubr
            return
          </CharString>
          <CharString index="9">
            26 callsubr
            235 119 vstem
            -104 callsubr
            return
          </CharString>
          <CharString index="10">
            122 vstem
            -103 callsubr
            return
          </CharString>
          <CharString index="11">
            97 305 rmoveto
            -248 89 -70 156 157 88 70 257 vhcurveto
            385 -117 -367 vlineto
            -216 -24 -25 -104 -1 vhcurveto
            -103 -25 27 215 hvcurveto
            367 -117 vlineto
            return
          </CharString>
          <CharString index="12">
            32 callsubr
            117 256 117 vstem
            -96 callsubr
            return
          </CharString>
          <CharString index="13">
            0 -85 -45 -73 -44 -18 26 61 43 8 31 14 13 vhcurveto
            12 12 33 5 51 hhcurveto
            61 41 -6 0 hvcurveto
            return
          </CharString>
          <CharString index="14">
            10 callsubr
            hintmask 10111100
            -71 callsubr
            hintmask 01111100
            -43 callsubr
            hintmask 10111100
            -82 callsubr
            return
          </CharString>
          <CharString index="15">
            0 -114 -41 -82 -34 -23 8 14 -16 vhcurveto
            -14 13 -24 33 100 vvcurveto
            349 72 hlineto
            204 -80 72 -142 return
          </CharString>
          <CharString index="16">
            -20 hstem
            -102 callsubr
            return
          </CharString>
          <CharString index="17">
            -64 callsubr
            215 -100 callsubr
            return
          </CharString>
          <CharString index="18">
            -90 -28 36 177 179 29 34 89 89 28 -34 -179 -177 -28 -36 -89 hvcurveto
            return
          </CharString>
          <CharString index="19">
            -59 callsubr
            108 109 -67 callsubr
            return
          </CharString>
          <CharString index="20">
            -30 callsubr
            215 -20 -101 callsubr
            return
          </CharString>
          <CharString index="21">
            hstem
            100 115 244 -97 callsubr
            return
          </CharString>
          <CharString index="22">
            rmoveto
            140 69 25 callsubr
            -69 35 50 -147 107 17 callsubr
            -146 -107 rlineto
            endchar
          </CharString>
          <CharString index="23">
            40 39 1 39 hhcurveto
            -4 389 -63 callsubr
            return
          </CharString>
          <CharString index="24">
            -77 callsubr
            195 261 -3 rlineto
            103 -378 vlineto
            return
          </CharString>
          <CharString index="25">
            -23 -43 -56 -25 -51 hhcurveto
            -23 -18 5 12 -10 hvcurveto
            -10 15 -3 34 66 vvcurveto
            363 -116 vlineto
            return
          </CharString>
          <CharString index="26">
            rmoveto
            124 93 -124 hlineto
            211 -93 rmoveto
            123 93 -123 hlineto
            endchar
          </CharString>
          <CharString index="27">
            -24 callsubr
            248 -93 callsubr
            return
          </CharString>
          <CharString index="28">
            117 -166 18 callsubr
            hlineto
            55 200 205 551 rlineto
            -122 hlineto
            -122 -412 rlineto
            -5 hlineto
            -124 412 rlineto
            -129 hlineto
            204 -531 rlineto
            return
          </CharString>
          <CharString index="29">
            -7 callsubr
            215 -20 -98 callsubr
            return
          </CharString>
          <CharString index="30">
            97 hmoveto
            378 102 hlineto
            -261 -2 -5 -42 callsubr
            5 return
          </CharString>
          <CharString index="31">
            -180 -58 -118 -188 -188 58 -117 180 return
          </CharString>
          <CharString index="32">
            -151 -21 callsubr
            -295 125 -69 151 return
          </CharString>
          <CharString index="33">
            97 hmoveto
            111 hlineto
            -13 563 rlineto
            5 hlineto
            250 -563 rlineto
            153 699 -111 hlineto
            14 -564 rlineto
            -5 hlineto
            -251 564 rlineto
            -153 hlineto
            return
          </CharString>
          <CharString index="34">
            32 callsubr
            114 vstem
            -83 callsubr
            return
          </CharString>
          <CharString index="35">
            81 vstem
            418 -37 rmoveto
            208 148 150 208 208 -148 150 -208 -197 -157 -150 -208 -208 147 -150 207 hvcurveto
            79 vmoveto
            -172 -101 107 172 172 110 107 163 172 103 -107 -172 -172 -103 -107 -172 hvcurveto
            return
          </CharString>
          <CharString index="36">
            80 199 rmoveto
            -142 50 -70 105 79 75 48 23 42 vhcurveto
            5 hlineto
            return
          </CharString>
          <CharString index="37">
            -119 69 -66 101 93 97 76 0 vhcurveto
            5 hlineto
            return
          </CharString>
          <CharString index="38">
            rmoveto
            274 80 hlineto
            -148 -6 rlineto
            4 vlineto
            0 52 57 34 47 vhcurveto
            28 38 24 42 40 vvcurveto
            67 -55 41 -70 -63 -64 -31 -16 -23 vhcurveto
            34 -74 rlineto
            19 33 48 21 39 hhcurveto
            23 9 -13 -17 -29 -26 -36 -47 -55 hvcurveto
            -38 -46 -64 -70 0 vvcurveto
            endchar
          </CharString>
          <CharString index="39">
            116 444 hlineto
            20 28 55 24 54 hhcurveto
            20 25 -2 0 hvcurveto
            9 104 rlineto
            0 -20 8 -31 -70 -92 -74 0 vhcurveto
            -6 hlineto
            return
          </CharString>
          <CharString index="40">
            45 -36 -224 -224 -48 -33 -106 hvcurveto
            return
          </CharString>
          <CharString index="41">
            rmoveto
            272 69 -32 92 -262 -93 rlineto
            endchar
          </CharString>
          <CharString index="42">
            22 126 -45 12 callsubr
            31 84 -57 callsubr
            return
          </CharString>
          <CharString index="43">
            -5 -13 98 -64 -21 276 89 137 96 return
          </CharString>
          <CharString index="44">
            4 310 rlineto
            -118 hlineto
            4 -378 rlineto
            return
          </CharString>
          <CharString index="45">
            0 49 -9 31 104 78 63 191 vhcurveto
            458 -116 -466 vlineto
            -132 -19 -14 -37 -22 -42 5 3 -13 vhcurveto
            return
          </CharString>
          <CharString index="46">
            0 -106 -55 -93 -34 -24 7 15 -17 vhcurveto
            -25 22 -31 77 132 vvcurveto
            156 22 62 27 28 vhcurveto
            17 16 34 6 61 hhcurveto
            31 106 -10 -4 27 hvcurveto
            13 98 rlineto
            10 -41 -94 10 -49 hhcurveto
            -158 -119 -64 -306 return
          </CharString>
          <CharString index="47">
            -51 21 -21 172 98 326 -20 123 -20 return
          </CharString>
          <CharString index="48">
            -106 -47 33 224 224 45 36 return
          </CharString>
          <CharString index="49">
            rmoveto
            45 24 56 48 124 vvcurveto
            10 -105 -71 vlineto
            -50 -11 -24 -27 -24 vhcurveto
            return
          </CharString>
          <CharString index="50">
            -37 callsubr
            -14 -42 -14 vhcurveto
            return
          </CharString>
          <CharString index="51">
            rmoveto
            115 2 13 51 115 hhcurveto
            101 -2 return
          </CharString>
          <CharString index="52">
            32 callsubr
            104 298 104 vstem
            -74 callsubr
            return
          </CharString>
          <CharString index="53">
            rmoveto
            hintmask 01111000
            -84 callsubr
            endchar
          </CharString>
          <CharString index="54">
            -20 hstem
            211 117 vstem
            210 hmoveto
            119 hlineto
            -2 256 210 443 27 callsubr
            -138 -347 rlineto
            -5 hlineto
            -137 347 27 callsubr
            210 -443 rlineto
            return
          </CharString>
          <CharString index="55">
            rmoveto
            278 80 -87 323 hlineto
            -82 6 -140 -96 46 -64 81 64 rlineto
            4 -233 -100 hlineto
            return
          </CharString>
          <CharString index="56">
            -50 callsubr
            116 386 vlineto
            -25 callsubr
            return
          </CharString>
          <CharString index="57">
            78 callsubr
            445 hlineto
            15 24 70 33 59 hhcurveto
            50 12 -13 -123 hvcurveto
            -357 return
          </CharString>
          <CharString index="58">
            rmoveto
            -67 48 -20 46 47 47 20 67 69 -47 20 -47 -46 -48 -20 -69 vhcurveto
            58 hmoveto
            29 12 5 24 25 10 -5 -29 -27 -10 -6 -25 -24 -12 6 27 vhcurveto
            endchar
          </CharString>
          <CharString index="59">
            rmoveto
            -69 48 -20 46 46 47 20 69 71 -47 19 -46 -46 -48 -19 -71 vhcurveto
            56 hmoveto
            31 12 6 26 25 11 -6 -31 -29 -11 -8 -25 -26 -12 8 29 vhcurveto
            endchar
          </CharString>
          <CharString index="60">
            rmoveto
            272 -69 22 68 -262 93 rlineto
            endchar
          </CharString>
          <CharString index="61">
            rmoveto
            265 -45 callsubr
          </CharString>
          <CharString index="62">
            56 -28 89 -256 -79 rlineto
            endchar
          </CharString>
          <CharString index="63">
            -20 hstem
            133 38 callsubr
            -13 -4 rmoveto
            -62 callsubr
            return
          </CharString>
          <CharString index="64">
            14 -58 rlineto
            76 -20 callsubr
            -447 hlineto
            return
          </CharString>
          <CharString index="65">
            205 rlineto
            241 99 -241 hlineto
            return
          </CharString>
          <CharString index="66">
            126 -47 12 callsubr
            30 82 -57 callsubr
            return
          </CharString>
          <CharString index="67">
            -24 -123 43 -52 hhcurveto
            -50 -33 -31 -84 -1 hvcurveto
            endchar
          </CharString>
          <CharString index="68">
            -16 callsubr
            46 131 vvcurveto
            93 17 67 25 27 vhcurveto
            16 16 26 8 52 hhcurveto
            59 65 -10 -4 31 hvcurveto
            return
          </CharString>
          <CharString index="69">
            39 callsubr
            456 hlineto
            0 90 39 58 56 14 -23 -114 vhcurveto
            -358 116 386 vlineto
            130 -31 83 -122 -61 -72 -29 -22 -48 vhcurveto
            return
          </CharString>
          <CharString index="70">
            1 hvcurveto
            -63 9 rlineto
            0 return
          </CharString>
          <CharString index="71">
            -21 585 -20 return
          </CharString>
          <CharString index="72">
            hlineto
            213 -22 callsubr
            endchar
          </CharString>
          <CharString index="73">
            116 -20 callsubr
            hlineto
            endchar
          </CharString>
          <CharString index="74">
            rmoveto
            0 49 -7 33 93 80 58 181 vhcurveto
            524 -115 -15 callsubr
            endchar
          </CharString>
          <CharString index="75">
            rmoveto
            266 -55 19 66 -259 77 rlineto
            endchar
          </CharString>
          <CharString index="76">
            -280 20 -21 22 -26 callsubr
            return
          </CharString>
          <CharString index="77">
            -4 -13 95 168 89 164 95 return
          </CharString>
          <CharString index="78">
            hstem
            -5 callsubr
            122 vstem
            return
          </CharString>
          <CharString index="79">
            21 -36 callsubr
            return
          </CharString>
          <CharString index="80">
            rmoveto
            130 56 4 2 4 2 rrcurveto
            -17 callsubr
            -141 -98 rlineto
            endchar
          </CharString>
          <CharString index="81">
            -21 699 -20 return
          </CharString>
          <CharString index="82">
            121 -25 91 -117 -87 -86 -49 -22 -38 vhcurveto
            -5 hlineto
            return
          </CharString>
          <CharString index="83">
            26 -13 103 -69 -36 callsubr
            return
          </CharString>
          <CharString index="84">
            hstemhm
            46 119 54 callsubr
            return
          </CharString>
          <CharString index="85">
            -93 -8 callsubr
            return
          </CharString>
          <CharString index="86">
            -125 -68 -293 return
          </CharString>
          <CharString index="87">
            585 -116 return
          </CharString>
          <CharString index="88">
            -57 vvcurveto
            -38 -12 -29 -18 -13 vhcurveto
            -7 -10 -17 -9 -31 hhcurveto
            -97 -115 52 0 1 -34 -97 0 hvcurveto
            0 return
          </CharString>
          <CharString index="89">
            rmoveto
            142 -107 rlineto
            61 hlineto
            142 107 -31 46 -138 -68 rlineto
            -7 hlineto
            -138 68 rlineto
            endchar
          </CharString>
          <CharString index="90">
            14 callsubr
            -60 30 48 -142 98 17 callsubr
            return
          </CharString>
          <CharString index="91">
            0 -101 -47 -71 -30 -16 8 7 -10 vhcurveto
            -23 17 -34 return
          </CharString>
          <CharString index="92">
            -525 vlineto
            -126 -9 -14 -47 -32 -39 6 0 vhcurveto
            return
          </CharString>
          <CharString index="93">
            140 hlineto
            -265 314 rlineto
            5 vlineto
            247 263 rlineto
            -139 hlineto
            -232 -268 rlineto
            return
          </CharString>
          <CharString index="94">
            142 -97 rlineto
            61 hlineto
            142 97 -31 48 -138 -60 rlineto
            -7 hlineto
            -138 60 rlineto
            endchar
          </CharString>
          <CharString index="95">
            -58 0 101 204 99 193 102 return
          </CharString>
          <CharString index="96">
            21 -26 callsubr
            return
          </CharString>
          <CharString index="97">
            -170 rmoveto
            46 36 38 67 119 vvcurveto
            54 -115 -126 vlineto
            -52 -10 -34 -22 -28 vhcurveto
            return
          </CharString>
          <CharString index="98">
            rmoveto
            128 57 rlineto
            7 hlineto
            127 -57 29 51 -129 92 17 callsubr
            -130 -92 rlineto
            return
          </CharString>
          <CharString index="99">
            18 callsubr
            93 31 callsubr
            return
          </CharString>
          <CharString index="100">
            5 -13 92 426 93 return
          </CharString>
          <CharString index="101">
            -9 rmoveto
            107 hlineto
            171 356 190 386 rlineto
            -105 24 callsubr
            return
          </CharString>
          <CharString index="102">
            64 123 307 return
          </CharString>
          <CharString index="103">
            -40 -27 17 54 52 27 17 40 40 27 -17 -52 -54 -27 -17 -40 hvcurveto
            endchar
          </CharString>
          <CharString index="104">
            rmoveto
            121 93 -121 -35 callsubr
          </CharString>
          <CharString index="105">
            -36 -16 -4 -96 -7 vhcurveto
            -70 52 vlineto
            49 20 -10 -43 -34 -11 -15 -31 -48 return
          </CharString>
          <CharString index="106">
            88 -13 13 callsubr
            return
          </CharString>
          <CharString index="107">
            -11 callsubr
            hstem
            return
          </CharString>
          <CharString index="108">
            116 214 116 return
          </CharString>
          <CharString index="109">
            15 callsubr
            15 vhcurveto
            return
          </CharString>
          <CharString index="110">
            0 hvcurveto
            endchar
          </CharString>
          <CharString index="111">
            vstem
            11 callsubr
            5 597 51 callsubr
            return
          </CharString>
          <CharString index="112">
            138 112 -138 hlineto
            return
          </CharString>
          <CharString index="113">
            -21 266 93 261 92 return
          </CharString>
          <CharString index="114">
            124 87 123 return
          </CharString>
          <CharString index="115">
            62 vvcurveto
            82 -58 27 -79 -29 -50 -6 -5 -28 vhcurveto
            8 -76 35 5 return
          </CharString>
          <CharString index="116">
            102 vvcurveto
            33 -4 38 0 vhcurveto
            -103 hlineto
            0 7 -85 -35 vvcurveto
            -52 -10 return
          </CharString>
          <CharString index="117">
            -20 hstemhm
            80 1 callsubr
            return
          </CharString>
          <CharString index="118">
            97 hmoveto
            367 104 hlineto
            -255 -2 return
          </CharString>
          <CharString index="119">
            51 hhcurveto
            50 31 return
          </CharString>
          <CharString index="120">
            104 517 104 return
          </CharString>
          <CharString index="121">
            7 hlineto
            139 return
          </CharString>
          <CharString index="122">
            rmoveto
            0 15 43 return
          </CharString>
          <CharString index="123">
            116 -80 42 -79 -79 -80 -42 -116 -116 80 -44 79 return
          </CharString>
          <CharString index="124">
            rlineto
            -61 hlineto
            return
          </CharString>
          <CharString index="125">
            rmoveto
            120 return
          </CharString>
          <CharString index="126">
            1 rlinecurve
            9 8 0 -1 7 hvcurveto
            40 -2 3 -9 -27 vvcurveto
            return
          </CharString>
          <CharString index="127">
            vstem
            82 39 callsubr
            753 -116 hlineto
            5 -432 rlineto
            return
          </CharString>
          <CharString index="128">
            -23 -124 45 -51 hhcurveto
            -51 -32 -30 -82 -1 hvcurveto
            endchar
          </CharString>
          <CharString index="129">
            27 21 -21 493 105 -13 -20 return
          </CharString>
          <CharString index="130">
            91 -13 103 609 -20 return
          </CharString>
          <CharString index="131">
            hlineto
            -157 -340 rlineto
            return
          </CharString>
          <CharString index="132">
            rlineto
            14 callsubr
            return
          </CharString>
          <CharString index="133">
            hstem
            30 callsubr
            return
          </CharString>
          <CharString index="134">
            rlineto
            -127 hlineto
            return
          </CharString>
          <CharString index="135">
            -28 callsubr
            248 50 callsubr
            return
          </CharString>
          <CharString index="136">
            8 -32 -60 11 -62 hhcurveto
            -148 -122 -63 -241 return
          </CharString>
          <CharString index="137">
            62 120 return
          </CharString>
          <CharString index="138">
            -120 hlineto
            return
          </CharString>
          <CharString index="139">
            -20 hstem
            97 return
          </CharString>
          <CharString index="140">
            -309 -66 -21 849 -20 hstem
            95 94 vstem
            95 return
          </CharString>
          <CharString index="141">
            75 callsubr
            hintmask 10111000
            return
          </CharString>
          <CharString index="142">
            -2 14 vhcurveto
            -101 hlineto
            0 6 return
          </CharString>
          <CharString index="143">
            18 callsubr
            94 31 callsubr
            return
          </CharString>
          <CharString index="144">
            hstemhm
            93 116 return
          </CharString>
          <CharString index="145">
            116 vstem
            return
          </CharString>
          <CharString index="146">
            hmoveto
            116 return
          </CharString>
          <CharString index="147">
            79 40 80 hlineto
            -40 -1 rlineto
            147 -74 vlineto
            return
          </CharString>
          <CharString index="148">
            -241 -9 -26 vhcurveto
            -1 -3 -1 -6 -6 vvcurveto
            return
          </CharString>
          <CharString index="149">
            -170 rmoveto
            0 40 -9 40 69 45 40 65 return
          </CharString>
          <CharString index="150">
            -13 58 rlineto
            -76 hlineto
            return
          </CharString>
          <CharString index="151">
            32 callsubr
            116 return
          </CharString>
          <CharString index="152">
            -24 -123 45 -52 hhcurveto
            -50 -33 -30 -82 return
          </CharString>
          <CharString index="153">
            -103 vvcurveto
            -27 2 -29 2 -14 vhcurveto
            endchar
          </CharString>
          <CharString index="154">
            rmoveto
            138 109 -138 hlineto
            endchar
          </CharString>
          <CharString index="155">
            -178 98 665 -20 return
          </CharString>
          <CharString index="156">
            488 110 -13 -20 return
          </CharString>
          <CharString index="157">
            44 callsubr
            vstem
            return
          </CharString>
          <CharString index="158">
            rlineto
            -117 hlineto
            return
          </CharString>
          <CharString index="159">
            hstemhm
            99 114 return
          </CharString>
          <CharString index="160">
            -115 115 return
          </CharString>
          <CharString index="161">
            220 116 return
          </CharString>
          <CharString index="162">
            rlineto
            -6 hlineto
            return
          </CharString>
          <CharString index="163">
            699 rlineto
            return
          </CharString>
          <CharString index="164">
            81 -34 76 -35 vhcurveto
            117 -54 41 return
          </CharString>
          <CharString index="165">
            67 callsubr
            -13 return
          </CharString>
          <CharString index="166">
            18 29 vhcurveto
            -56 38 rlineto
            -35 -34 -37 return
          </CharString>
          <CharString index="167">
            -3 10 -9 41 -3 10 rrcurveto
            -73 hlineto
            return
          </CharString>
          <CharString index="168">
            -263 -124 88 734 89 hstemhm
            return
          </CharString>
          <CharString index="169">
            -150 -123 86 738 85 hstemhm
            return
          </CharString>
          <CharString index="170">
            rmoveto
            134 94 -134 hlineto
            endchar
          </CharString>
          <CharString index="171">
            rlineto
            6 vlineto
            return
          </CharString>
          <CharString index="172">
            -257 -103 -21 920 -20 hstem
            return
          </CharString>
          <CharString index="173">
            30 673 -21 161 -20 hstem
            return
          </CharString>
          <CharString index="174">
            30 82 -37 callsubr
            return
          </CharString>
          <CharString index="175">
            hvcurveto
            3 -12 4 -23 -20 vvcurveto
            -27 return
          </CharString>
          <CharString index="176">
            149 254 -149 253 return
          </CharString>
          <CharString index="177">
            -293 104 -21 507 -20 hstem
            return
          </CharString>
          <CharString index="178">
            hlineto
            4 195 262 -3 rlineto
            return
          </CharString>
          <CharString index="179">
            -21 753 -20 hstem
            84 114 return
          </CharString>
          <CharString index="180">
            96 417 98 159 -20 hstem
            return
          </CharString>
          <CharString index="181">
            -145 -21 153 return
          </CharString>
          <CharString index="182">
            -20 52 callsubr
            return
          </CharString>
          <CharString index="183">
            vstem
            97 hmoveto
            117 return
          </CharString>
          <CharString index="184">
            -21 271 -20 hstem
            return
          </CharString>
          <CharString index="185">
            93 39 callsubr
            return
          </CharString>
          <CharString index="186">
            79 -32 77 hstemhm
            return
          </CharString>
          <CharString index="187">
            120 vstem
            return
          </CharString>
          <CharString index="188">
            115 vstem
            return
          </CharString>
        <CharString name=".notdef">
          -317 endchar
        </CharString>
        <CharString name=".null">
          -593 endchar
        </CharString>
        <CharString name="A">
          -51 21 -21 172 98 326 -20 123 -91 callsubr
          endchar
        </CharString>
        <CharString name="AE">
          215 0 101 70 99 35 99 188 -20 25 102 hstem
          370 113 vstem
          -7 hmoveto
          121 hlineto
          73 171 rlineto
          183 -171 377 102 hlineto
          -262 -2 -4 205 rlineto
          242 99 -242 71 callsubr
          103 -446 vlineto
          -84 -429 rmoveto
          135 322 rlineto
          18 -322 hlineto
          endchar
        </CharString>
        <CharString name="Aacute">
          -60 callsubr
          208 -91 callsubr
          -192 472 -46 callsubr
        </CharString>
        <CharString name="Acircumflex">
          -60 callsubr
          205 -91 callsubr
          -223 468 -27 callsubr
        </CharString>
        <CharString name="Adieresis">
          -60 callsubr
          85 93 hstem
          103 120 93 80 callsubr
          -102 callsubr
          -246 494 rmoveto
          120 93 -120 -35 callsubr
        </CharString>
        <CharString name="Agrave">
          -60 callsubr
          207 -91 callsubr
          -221 528 rmoveto
          266 -55 18 66 -258 77 rlineto
          endchar
        </CharString>
        <CharString name="Aring">
          -60 callsubr
          48 54 67 55 hstem
          174 58 71 59 vstem
          -102 callsubr
          -175 544 -49 callsubr
        </CharString>
        <CharString name="Atilde">
          -60 callsubr
          67 79 callsubr
          hintmask 11110100
          -102 callsubr
          -205 480 2 callsubr
          hintmask 11111000
          22 -41 callsubr
          hintmask 11110100
          45 callsubr
          hvcurveto
          endchar
        </CharString>
        <CharString name="B">
          44 -13 92 240 89 214 90 hstemhm
          99 115 209 120 -105 105 -105 123 hintmask 11110010
          97 4 rmoveto
          0 138 -17 100 112 114 44 178 108 -71 35 -46 12 vhcurveto
          4 vlineto
          hintmask 11110100
          17 9 82 26 117 vvcurveto
          146 -96 46 -119 -98 -133 -13 0 vhcurveto
          5 -373 rlineto
          112 -6 rmoveto
          0 77 -1 35 61 51 -14 -100 -86 -17 -40 -80 -55 -72 9 0 vhcurveto
          528 vmoveto
          0 59 6 52 vhcurveto
          hintmask 11111000
          70 28 -26 -81 -76 -20 -31 -71 -46 -72 1 3 callsubr
        </CharString>
        <CharString name="C">
          11 -13 99 522 104 hstem
          64 124 vstem
          518 141 rmoveto
          -61 callsubr
          -258 107 -97 153 134 96 65 3 callsubr
        </CharString>
        <CharString name="CR">
          -317 endchar
        </CharString>
        <CharString name="Ccedilla">
          11 -179 80 86 99 522 104 hstemhm
          64 124 28 193 -77 77 hintmask 11110100
          216 -170 rmoveto
          0 39 -9 40 69 45 40 65 24 -5 24 -5 20 vhcurveto
          93 16 62 42 0 vvcurveto
          -36 89 rlineto
          -61 callsubr
          -262 110 -93 151 68 callsubr
          -14 -4 -33 vhcurveto
          hintmask 11111000
          -25 -44 5 3 callsubr
        </CharString>
        <CharString name="D">
          62 -13 101 523 101 hstem
          97 116 250 127 vstem
          97 hmoveto
          0 150 -13 66 162 115 93 278 187 -44 167 -221 -78 -150 -13 0 vhcurveto
          116 -94 rmoveto
          0 69 6 45 54 22 -9 -10 12 vhcurveto
          34 -27 14 -90 -112 vvcurveto
          -166 -25 -61 -26 -24 vhcurveto
          -14 -15 -28 -10 -58 hhcurveto
          -43 -54 8 3 callsubr
        </CharString>
        <CharString name="E">
          -58 0 101 204 99 194 101 hstem
          97 114 vstem
          -77 callsubr
          196 261 -3 rlineto
          102 -378 vlineto
          endchar
        </CharString>
        <CharString name="Eacute">
          -12 callsubr
          188 -73 callsubr
          69 43 -46 callsubr
        </CharString>
        <CharString name="Ecircumflex">
          -12 callsubr
          185 -73 callsubr
          44 39 rmoveto
          131 56 3 2 5 2 rrcurveto
          7 hlineto
          138 -60 30 48 -141 98 17 callsubr
          -142 -98 rlineto
          endchar
        </CharString>
        <CharString name="Edieresis">
          -12 callsubr
          65 93 hstemhm
          97 114 -89 121 92 115 hintmask 11111010
          -83 callsubr
          hintmask 11110110
          25 65 -3 callsubr
        </CharString>
        <CharString name="Egrave">
          -12 callsubr
          187 -73 callsubr
          39 99 -32 callsubr
        </CharString>
        <CharString name="Eth">
          74 -13 101 223 91 209 101 hstem
          110 116 250 127 vstem
          110 hmoveto
          0 149 -13 67 161 116 93 278 187 -45 167 -221 -78 -149 -13 0 vhcurveto
          -297 -66 -91 66 vlineto
          116 hmoveto
          114 91 -114 202 hlineto
          0 68 7 45 52 25 -9 -10 11 vhcurveto
          32 -25 17 -87 -117 vvcurveto
          -167 -26 -61 -25 -24 vhcurveto
          -14 -15 -28 -9 -59 hhcurveto
          -43 -54 7 3 callsubr
        </CharString>
        <CharString name="Euro">
          17 -13 99 156 81 60 81 144 104 hstem
          38 242 rmoveto
          64 hlineto
          -187 25 97 -68 133 hhcurveto
          134 88 56 0 hvcurveto
          -33 87 rlineto
          0 -95 -44 -102 -70 -38 24 132 -16 vhcurveto
          283 81 -470 hlineto
          60 vmoveto
          470 81 -283 hlineto
          123 15 18 21 112 hhcurveto
          62 82 -10 -3 29 hvcurveto
          12 97 rlineto
          10 -40 -94 10 -51 hhcurveto
          -132 -107 -47 -201 -28 hvcurveto
          -65 hlineto
          endchar
        </CharString>
        <CharString name="F">
          -72 21 -21 304 98 193 104 hstem
          97 114 76 callsubr
          hlineto
          -5 304 rlineto
          234 98 -234 71 callsubr
          105 -378 vlineto
          endchar
        </CharString>
        <CharString name="G">
          43 -13 99 203 88 231 104 hstemhm
          64 124 145 217 -113 113 hintmask 11110100
          437 97 rmoveto
          -7 -20 -31 -4 -39 hhcurveto
          -65 -32 14 14 -13 hvcurveto
          -17 18 -32 56 164 vvcurveto
          142 24 67 23 23 vhcurveto
          18 17 35 6 64 hhcurveto
          79 65 -10 -4 39 hvcurveto
          14 97 rlineto
          9 -40 -86 12 -65 hhcurveto
          -175 -118 -61 -299 -304 128 -61 149 121 88 42 0 hvcurveto
          348 vlineto
          hintmask 11111000
          -217 -85 hlineto
          hintmask 11110100
          104 -6 rlineto
          endchar
        </CharString>
        <CharString name="H">
          95 21 -21 305 101 293 44 callsubr
          262 116 76 callsubr
          hlineto
          -2 305 rlineto
          265 hlineto
          -3 -305 rlineto
          117 699 -117 hlineto
          3 -293 rlineto
          -266 hlineto
          3 293 51 callsubr
          endchar
        </CharString>
        <CharString name="I">
          -280 20 -21 700 -20 hstem
          99 114 vstem
          97 -1 rmoveto
          118 hlineto
          -4 390 -63 callsubr
          endchar
        </CharString>
        <CharString name="IJ">
          43 -13 100 -67 -21 22 -21 699 75 callsubr
          214 116 hintmask 01011100
          97 -1 rmoveto
          hintmask 00111100
          -84 callsubr
          hintmask 01011100
          180 -325 rmoveto
          hintmask 10011100
          -62 callsubr
          endchar
        </CharString>
        <CharString name="Iacute">
          -31 callsubr
          208 34 callsubr
          63 742 rmoveto
          253 55 -28 90 -243 -78 rlineto
          52 -810 -54 callsubr
        </CharString>
        <CharString name="Icircumflex">
          -31 callsubr
          205 34 callsubr
          25 741 -9 callsubr
          101 -793 -54 callsubr
        </CharString>
        <CharString name="Idieresis">
          -31 callsubr
          85 93 hstemhm
          3 119 -23 114 -22 119 hintmask 10111010
          3 764 rmoveto
          119 93 -119 hlineto
          188 -93 rmoveto
          119 93 -119 hlineto
          -94 -858 rmoveto
          hintmask 01110100
          -84 callsubr
          endchar
        </CharString>
        <CharString name="Igrave">
          -31 callsubr
          207 34 callsubr
          -3 797 rmoveto
          252 -54 19 66 -245 77 rlineto
          74 -887 -54 callsubr
        </CharString>
        <CharString name="Itilde">
          -31 callsubr
          67 80 -34 78 52 callsubr
          -114 221 hintmask 10101100
          56 750 rmoveto
          0 14 42 14 vhcurveto
          hintmask 10110100
          21 91 -46 47 hhcurveto
          hintmask 10110010
          47 29 58 callsubr
          -41 -14 vhcurveto
          hintmask 10101100
          -22 -89 44 -48 hhcurveto
          -47 -30 -30 -82 -1 hvcurveto
          104 -759 rmoveto
          hintmask 01110100
          -84 callsubr
          endchar
        </CharString>
        <CharString name="J">
          -251 -13 100 612 -44 callsubr
          endchar
        </CharString>
        <CharString name="Jcircumflex">
          -262 -13 100 612 -20 205 -44 callsubr
          58 646 -9 callsubr
          endchar
        </CharString>
        <CharString name="K">
          28 0 callsubr
          99 38 callsubr
          484 hmoveto
          147 hlineto
          -289 359 64 callsubr
          262 334 rlineto
          -140 hlineto
          -247 -339 rlineto
          -120 -360 rmoveto
          118 699 -118 hlineto
          5 -344 rlineto
          endchar
        </CharString>
        <CharString name="L">
          -126 0 103 596 32 callsubr
          114 4 callsubr
          endchar
        </CharString>
        <CharString name="Ldotaccent">
          -126 0 103 238 108 250 32 callsubr
          114 89 130 4 callsubr
          203 -358 rmoveto
          130 108 -130 hlineto
          endchar
        </CharString>
        <CharString name="Lslash">
          -129 0 103 596 -20 hstemhm
          31 181 53 callsubr
          hintmask 11010000
          11 callsubr
          2 220 156 100 rlineto
          95 vlineto
          -156 -100 3 282 rlineto
          -117 -352 hlineto
          hintmask 11100000
          -66 -41 rlineto
          -94 vlineto
          hintmask 11010000
          66 41 rlineto
          endchar
        </CharString>
        <CharString name="M">
          228 0 callsubr
          104 105 401 105 vstem
          93 hmoveto
          117 hlineto
          -1 584 rlineto
          6 hlineto
          134 -412 rlineto
          124 hlineto
          131 412 rlineto
          5 hlineto
          2 -584 rlineto
          116 hlineto
          -24 56 callsubr
          -159 hlineto
          -131 -424 55 callsubr
          -133 424 rlineto
          -158 hlineto
          endchar
        </CharString>
        <CharString name="N">
          106 21 -21 699 -55 callsubr
          endchar
        </CharString>
        <CharString name="Nacute">
          106 -11 callsubr
          208 -55 callsubr
          162 43 -46 callsubr
        </CharString>
        <CharString name="Ntilde">
          106 -11 callsubr
          67 79 callsubr
          97 104 298 40 -40 104 hintmask 11011010
          -74 callsubr
          132 51 15 callsubr
          14 vhcurveto
          hintmask 11101100
          22 -41 callsubr
          hintmask 11011100
          21 callsubr
        </CharString>
        <CharString name="O">
          87 -13 13 callsubr
          -99 callsubr
          endchar
        </CharString>
        <CharString name="OE">
          348 -13 114 -101 101 204 99 193 102 -102 115 hstemhm
          -5 callsubr
          123 hintmask 01110110
          503 hmoveto
          378 102 hlineto
          -262 -2 -4 -42 callsubr
          4 195 262 -3 rlineto
          103 -378 -40 -4 vlineto
          hintmask 10101110
          36 -43 -53 17 -63 hhcurveto
          -75 callsubr
          63 53 18 36 43 hvcurveto
          4 hlineto
          hintmask 01110110
          -163 50 rmoveto
          -88 callsubr
          endchar
        </CharString>
        <CharString name="Oacute">
          -1 callsubr
          175 -20 -99 callsubr
          -103 651 -46 callsubr
        </CharString>
        <CharString name="Ocircumflex">
          -1 callsubr
          172 -20 -99 callsubr
          -138 647 rmoveto
          138 60 rlineto
          -17 callsubr
          -142 -98 rlineto
          endchar
        </CharString>
        <CharString name="Odieresis">
          -1 callsubr
          52 93 hstemhm
          64 123 -11 121 92 120 -15 122 hintmask 11110010
          -106 callsubr
          hintmask 11101100
          -164 673 -3 callsubr
        </CharString>
        <CharString name="Ograve">
          -1 callsubr
          174 -20 -99 callsubr
          -132 707 -32 callsubr
        </CharString>
        <CharString name="Oslash">
          88 -18 -21 26 13 callsubr
          17 -20 hstemhm
          -5 callsubr
          122 hintmask 11011100
          111 -39 rmoveto
          97 hlineto
          20 44 rlineto
          -13 34 38 -5 40 hhcurveto
          151 125 69 295 153 -34 91 -55 52 hvcurveto
          39 82 rlineto
          -96 hlineto
          -16 -37 rlineto
          hintmask 11101100
          14 -35 -38 6 -41 hhcurveto
          -151 -21 callsubr
          -156 35 -93 55 -53 hvcurveto
          221 279 rmoveto
          97 204 rlineto
          15 -38 7 -60 -86 vvcurveto
          -224 -48 -33 -106 -27 -22 3 6 -20 vhcurveto
          -61 65 rmoveto
          -15 37 -8 58 88 vvcurveto
          225 45 35 108 28 24 -3 -8 19 vhcurveto
          -122 -270 rlineto
          endchar
        </CharString>
        <CharString name="Otilde">
          -1 callsubr
          34 79 callsubr
          64 123 -33 33 307 34 -34 122 hintmask 11011001
          -106 callsubr
          -123 659 15 callsubr
          14 vhcurveto
          hintmask 11101010
          23 -41 callsubr
          hintmask 11010110
          45 callsubr
          -1 hvcurveto
          endchar
        </CharString>
        <CharString name="P">
          11 21 -21 222 99 298 93 hstem
          99 115 216 122 76 callsubr
          227 hlineto
          0 61 -5 50 114 113 50 200 159 -74 81 -131 -109 -141 -14 0 vhcurveto
          4 -373 rlineto
          113 286 rmoveto
          4 25 42 4 43 hhcurveto
          39 28 -6 -9 11 hvcurveto
          12 -9 16 -19 -95 vvcurveto
          -132 -7 -28 -93 -58 -58 10 0 vhcurveto
          endchar
        </CharString>
        <CharString name="Q">
          102 -76 -21 84 13 callsubr
          -29 callsubr
          621 -97 rmoveto
          38 100 -138 42 64 callsubr
          57 54 38 87 158 vvcurveto
          294 -125 68 -150 -152 -21 callsubr
          -294 125 -70 148 29 29 3 6 27 vhcurveto
          -82 95 rmoveto
          -59 callsubr
          109 108 -67 callsubr
          endchar
        </CharString>
        <CharString name="R">
          74 21 6 callsubr
          -86 callsubr
          endchar
        </CharString>
        <CharString name="Racute">
          74 21 6 callsubr
          180 -20 -86 callsubr
          2 372 rmoveto
          264 65 -30 87 -254 -87 rlineto
          endchar
        </CharString>
        <CharString name="Rcaron">
          74 21 6 callsubr
          0 38 145 -20 hstemhm
          100 115 244 122 hintmask 11101110
          -103 callsubr
          -62 479 rmoveto
          hintmask 11011110
          -13 callsubr
        </CharString>
        <CharString name="Rcommaaccent">
          74 -240 -21 282 6 callsubr
          hstem
          100 115 54 105 85 -97 callsubr
          59 -629 -58 callsubr
          endchar
        </CharString>
        <CharString name="S">
          -51 -13 105 514 106 hstem
          56 121 194 80 callsubr
          464 683 rmoveto
          0 -99 29 -84 -150 -75 -86 -108 -122 57 callsubr
          -28 -19 callsubr
          108 -61 118 135 93 87 130 135 -114 35 -80 38 vhcurveto
          -75 36 -45 25 49 vvcurveto
          40 12 17 13 11 vhcurveto
          10 12 17 6 32 hhcurveto
          73 109 -21 3 callsubr
        </CharString>
        <CharString name="T">
          -95 21 -21 597 102 hstem
          189 114 vstem
          188 39 callsubr
          hlineto
          -2 599 195 -3 rlineto
          103 -501 -103 vlineto
          195 3 rlineto
          endchar
        </CharString>
        <CharString name="Thorn">
          23 0 228 -99 99 296 93 82 -20 hstemhm
          96 115 228 121 hintmask 10111100
          95 hmoveto
          117 134 hlineto
          hintmask 01111100
          0 65 -5 48 117 118 50 199 159 -77 80 -135 -44 -49 -3 -3 -43 vhcurveto
          88 -117 vlineto
          3 -321 rlineto
          -12 1 -12 -11 vvcurveto
          hintmask 10111100
          112 173 rmoveto
          4 27 47 4 43 hhcurveto
          38 31 -6 -9 11 hvcurveto
          13 -8 18 -20 -94 vvcurveto
          -129 -7 -30 -98 -60 -63 10 0 vhcurveto
          endchar
        </CharString>
        <CharString name="U">
          91 -13 103 609 -95 callsubr
          endchar
        </CharString>
        <CharString name="Uacute">
          23 callsubr
          208 -95 callsubr
          138 43 rmoveto
          266 -45 callsubr
        </CharString>
        <CharString name="Ucircumflex">
          23 callsubr
          205 -95 callsubr
          104 39 rmoveto
          138 60 rlineto
          7 hlineto
          138 -60 31 48 -142 98 17 callsubr
          -142 -98 rlineto
          endchar
        </CharString>
        <CharString name="Udieresis">
          23 callsubr
          83 94 hstemhm
          97 117 -38 120 93 120 -39 117 hintmask 11110010
          -96 callsubr
          hintmask 11101100
          79 63 36 callsubr
          213 -94 36 callsubr
          endchar
        </CharString>
        <CharString name="Ugrave">
          23 callsubr
          207 -95 callsubr
          88 99 -32 callsubr
        </CharString>
        <CharString name="V">
          -24 0 callsubr
          207 hmoveto
          146 hlineto
          193 56 callsubr
          -124 hlineto
          -139 -596 55 callsubr
          -138 596 rlineto
          -123 hlineto
          endchar
        </CharString>
        <CharString name="W">
          192 0 callsubr
          129 hmoveto
          154 hlineto
          100 428 rlineto
          6 hlineto
          101 -428 rlineto
          151 hlineto
          103 56 callsubr
          -118 hlineto
          -63 -585 55 callsubr
          -98 417 rlineto
          -146 hlineto
          -98 -417 55 callsubr
          -64 585 51 callsubr
          endchar
        </CharString>
        <CharString name="X">
          -14 0 callsubr
          5 hmoveto
          134 hlineto
          146 271 rlineto
          5 hlineto
          143 -271 rlineto
          134 hlineto
          -207 348 199 351 rlineto
          -133 hlineto
          -138 -275 55 callsubr
          -137 275 rlineto
          -133 hlineto
          199 -349 rlineto
          endchar
        </CharString>
        <CharString name="Y">
          -46 21 -21 699 -53 callsubr
          endchar
        </CharString>
        <CharString name="Yacute">
          -46 -11 callsubr
          208 -53 callsubr
          -45 486 rmoveto
          266 -45 callsubr
        </CharString>
        <CharString name="Z">
          -36 0 99 500 100 hstem
          29 hmoveto
          491 102 hlineto
          -350 -5 rlineto
          5 vlineto
          346 499 rlineto
          98 -466 -103 vlineto
          330 7 rlineto
          -7 vlineto
          -351 -498 rlineto
          endchar
        </CharString>
        <CharString name="a">
          -64 callsubr
          -23 callsubr
          hintmask 01111100
          -107 callsubr
          hintmask 10111100
          -70 callsubr
          hintmask 01111100
          -26 67 rmoveto
          hintmask 10111100
          -94 callsubr
          endchar
        </CharString>
        <CharString name="aacute">
          -90 callsubr
          -216 382 -66 callsubr
        </CharString>
        <CharString name="acircumflex">
          -64 callsubr
          206 -100 callsubr
          -235 377 -85 callsubr
        </CharString>
        <CharString name="acute">
          66 callsubr
          189 652 -66 callsubr
        </CharString>
        <CharString name="acute.cap">
          -107 763 -21 145 -20 hstem
          170 742 -46 callsubr
        </CharString>
        <CharString name="adieresis">
          -64 callsubr
          79 93 hstemhm
          46 119 -38 7 callsubr
          -76 116 hintmask 0111110010000000
          -107 callsubr
          hintmask 1011110100000000
          -70 callsubr
          hintmask 0111110010000000
          -26 67 rmoveto
          hintmask 1011110010000000
          -94 callsubr
          hintmask 1011101100000000
          -258 407 -81 callsubr
        </CharString>
        <CharString name="ae">
          326 -13 95 176 96 148 96 hstem
          57 119 220 118 229 118 vstem
          450 71 rmoveto
          -63 44 66 -21 81 hhcurveto
          109 98 48 0 hvcurveto
          -29 88 rlineto
          0 -115 -41 -76 -71 -43 9 167 vhcurveto
          347 70 hlineto
          200 -80 70 -140 -69 -58 -18 -46 -43 vhcurveto
          -4 hlineto
          41 -32 -50 23 -81 hhcurveto
          -115 -118 -55 0 hvcurveto
          31 -86 rlineto
          0 115 45 101 34 18 -6 -15 10 vhcurveto
          13 -19 3 -38 -70 vvcurveto
          -92 hlineto
          -146 -101 -43 -135 -126 68 -63 100 102 101 69 15 18 hvcurveto
          -50 58 rmoveto
          0 -82 -44 -65 -52 -21 25 63 82 20 11 101 61 38 -6 0 vhcurveto
          118 85 rmoveto
          108 2 16 50 111 hhcurveto
          100 0 -53 -101 hvcurveto
          endchar
        </CharString>
        <CharString name="agrave">
          -90 callsubr
          -238 451 -47 callsubr
        </CharString>
        <CharString name="ampersand">
          86 -13 93 542 90 hstemhm
          23 120 -70 116 162 116 hintmask 11011000
          648 -9 rmoveto
          -17 46 -26 70 -51 77 rrcurveto
          57 88 34 89 0 vvcurveto
          -99 29 rlineto
          0 -21 -60 -37 -64 vhcurveto
          -32 39 -39 37 -55 37 rrcurveto
          42 24 63 51 87 vvcurveto
          84 -57 87 -137 -129 -71 -78 -97 -77 44 -48 42 -28 vhcurveto
          hintmask 11101000
          -60 -25 -76 -64 -102 vvcurveto
          -100 84 -106 146 91 74 42 67 64 vhcurveto
          28 -49 19 -44 5 -16 rrcurveto
          -109 193 rmoveto
          -56 -42 -63 -44 -64 hhcurveto
          -67 -46 46 63 65 47 49 70 25 hvcurveto
          56 -34 59 -49 50 -65 rrcurveto
          -158 249 rmoveto
          hintmask 11011000
          -51 26 -27 34 53 vvcurveto
          47 22 33 58 60 22 -37 -42 -57 -40 -38 -44 -19 vhcurveto
          endchar
        </CharString>
        <CharString name="aring">
          -64 callsubr
          44 52 74 53 hstemhm
          46 119 23 56 74 57 10 116 hintmask 0111111111000000
          -107 callsubr
          hintmask 1011111111000000
          -70 callsubr
          hintmask 0111111111000000
          -26 67 rmoveto
          hintmask 1011111111000000
          -94 callsubr
          -197 461 -48 callsubr
        </CharString>
        <CharString name="asciicircum">
          -73 335 -21 386 -20 hstem
          50 325 rmoveto
          107 -11 100 292 rlineto
          6 hlineto
          100 -292 106 11 -149 375 rlineto
          31 callsubr
          endchar
        </CharString>
        <CharString name="asciitilde">
          -57 204 100 -32 32 -32 100 hstemhm
          hintmask 01000000
          56 238 rmoveto
          11 16 37 23 27 hhcurveto
          hintmask 10000000
          67 126 -68 62 hhcurveto
          59 43 43 24 17 hvcurveto
          -35 61 rlineto
          -12 -21 -33 -16 -24 hhcurveto
          hintmask 00100000
          -66 -114 68 -75 hhcurveto
          -56 -46 -49 -23 -21 hvcurveto
          endchar
        </CharString>
        <CharString name="asterisk">
          -173 382 -21 354 -20 hstem
          57 428 rmoveto
          76 -67 12 16 64 104 63 -103 11 -16 79 67 -14 14 -89 81 112 16 20 6 -31 99 -20 -7 -97 -48 18 105 rlineto
          20 -103 -20 vlineto
          18 -105 -97 48 -20 7 -31 -99 19 -6 111 -16 -88 -81 rlineto
          endchar
        </CharString>
        <CharString name="at">
          238 -48 79 85 79 269 86 70 82 hstem
          58 84 103 96 139 89 118 81 vstem
          505 42 rmoveto
          0 -51 -11 -39 -146 -127 106 195 192 123 96 164 162 96 -92 -145 -118 -69 -70 -34 -13 -2 7 104 78 2 139 0 vhcurveto
          0 -91 27 -70 -107 -58 -51 -164 -176 71 -43 48 58 43 64 42 22 vhcurveto
          4 hlineto
          -65 5 19 -41 57 hhcurveto
          92 104 115 156 202 -165 113 -174 -179 -192 -120 -258 -249 180 -123 174 58 45 15 0 hvcurveto
          -35 489 rmoveto
          -104 -59 -146 -47 -20 -13 38 92 107 8 21 58 35 32 -6 -2 6 vhcurveto
          endchar
        </CharString>
        <CharString name="atilde">
          -64 callsubr
          63 82 -37 80 -23 callsubr
          hintmask 01111011
          -107 callsubr
          hintmask 10111011
          -70 callsubr
          hintmask 01111011
          -26 67 rmoveto
          hintmask 10110111
          -94 callsubr
          -215 393 2 callsubr
          hintmask 10111011
          -65 callsubr
          hintmask 10110111
          -40 callsubr
        </CharString>
        <CharString name="b">
          6 -13 73 callsubr
          82 116 219 80 callsubr
          82 28 rmoveto
          -22 66 110 -19 62 hhcurveto
          106 111 58 256 209 -73 88 -125 -57 -84 -19 0 hvcurveto
          178 -116 vlineto
          116 -277 rmoveto
          0 64 20 62 69 24 0 -182 -162 -23 -43 -18 -15 vhcurveto
          -11 -12 -17 -4 -32 hhcurveto
          -59 -58 14 3 callsubr
        </CharString>
        <CharString name="backslash">
          -129 -77 -21 797 -20 hstem
          352 -98 rmoveto
          113 hlineto
          -184 423 -152 374 rlineto
          -114 hlineto
          179 -414 rlineto
          endchar
        </CharString>
        <CharString name="bar">
          33 callsubr
          -87 rmoveto
          94 849 -94 hlineto
          endchar
        </CharString>
        <CharString name="braceleft">
          62 callsubr
          48 238 53 callsubr
          hintmask 11100000
          171 70 rmoveto
          -111 45 -82 135 22 43 2 0 vhcurveto
          -5 87 rlineto
          0 -34 -3 -41 -40 -10 27 91 vhcurveto
          106 vlineto
          111 -60 28 -30 11 vhcurveto
          6 vlineto
          28 8 62 30 109 vvcurveto
          96 vlineto
          102 16 13 38 18 53 -3 0 vhcurveto
          5 85 rlineto
          0 -43 3 -22 vhcurveto
          hintmask 11010000
          -135 -45 -79 -119 hvcurveto
          -97 vlineto
          hintmask 11100000
          -81 -27 -12 -96 -14 vhcurveto
          -87 vlineto
          hintmask 11010000
          100 -15 23 -11 -81 vvcurveto
          endchar
        </CharString>
        <CharString name="braceright">
          62 callsubr
          28 243 53 callsubr
          -115 238 hintmask 11100000
          26 -121 rmoveto
          0 43 -2 22 135 45 82 111 vhcurveto
          120 vlineto
          hintmask 11001000
          81 23 11 100 15 vhcurveto
          87 vlineto
          hintmask 11100000
          -96 14 -27 12 81 vvcurveto
          97 vlineto
          119 -45 79 -135 -22 -43 -3 0 vhcurveto
          5 -85 rlineto
          0 53 3 18 vhcurveto
          hintmask 11010000
          38 16 -13 -102 hvcurveto
          -96 vlineto
          -109 62 -30 28 -8 vhcurveto
          -6 vlineto
          -30 -11 -60 -28 -111 vvcurveto
          -106 vlineto
          -91 -10 -27 -40 -41 -34 3 0 vhcurveto
          endchar
        </CharString>
        <CharString name="bracketleft">
          61 callsubr
          98 107 -107 198 hintmask 11010000
          98 -124 rmoveto
          198 89 hlineto
          hintmask 11100000
          -91 -2 rlineto
          737 vlineto
          hintmask 11010000
          91 -3 rlineto
          90 -198 vlineto
          endchar
        </CharString>
        <CharString name="bracketright">
          61 callsubr
          33 198 -105 105 hintmask 11100000
          33 -124 rmoveto
          198 911 -198 -90 hlineto
          hintmask 11010000
          93 3 rlineto
          -737 vlineto
          hintmask 11100000
          -93 2 rlineto
          endchar
        </CharString>
        <CharString name="brokenbar">
          33 callsubr
          403 rmoveto
          94 359 -94 hlineto
          -849 vmoveto
          94 359 -94 hlineto
          endchar
        </CharString>
        <CharString name="bullet">
          -201 313 77 callsubr
          197 292 rmoveto
          66 67 36 101 99 -67 35 -66 -68 -67 -34 -100 -101 67 -36 68 hvcurveto
          endchar
        </CharString>
        <CharString name="c">
          -59 -13 95 420 96 26 callsubr
          vstem
          486 579 rmoveto
          29 callsubr
          -219 102 -88 145 116 76 57 0 hvcurveto
          -7 16 -20 52 -7 17 rrcurveto
          -39 callsubr
          endchar
        </CharString>
        <CharString name="caron">
          -328 682 -21 153 -20 hstem
          -39 768 -18 callsubr
        </CharString>
        <CharString name="caron.cap">
          -238 771 -21 145 -20 hstem
          5 847 rmoveto
          -13 callsubr
        </CharString>
        <CharString name="ccedilla">
          -59 -179 80 86 95 420 96 hstemhm
          30 callsubr
          19 194 -77 77 hintmask 11110100
          201 42 callsubr
          24 -6 26 -5 19 vhcurveto
          72 16 45 33 0 vvcurveto
          -34 85 rlineto
          -39 callsubr
          13 91 rlineto
          29 callsubr
          -223 106 -84 143 68 callsubr
          -15 -4 -33 vhcurveto
          hintmask 11111000
          -24 -45 5 3 callsubr
        </CharString>
        <CharString name="cedilla">
          -89 -179 80 122 -20 hstemhm
          191 194 -77 77 hintmask 11010000
          191 42 callsubr
          42 -16 44 -4 11 vhcurveto
          -70 -11 rlineto
          3 -12 10 -38 -31 vvcurveto
          -26 -15 -4 -33 vhcurveto
          hintmask 11100000
          -24 -45 5 3 callsubr
        </CharString>
        <CharString name="cent">
          -59 -117 199 420 95 -95 192 hstemhm
          30 callsubr
          81 96 hintmask 11011000
          263 -117 rmoveto
          96 108 hlineto
          85 11 57 42 0 vvcurveto
          -34 85 rlineto
          -16 callsubr
          48 126 vvcurveto
          168 26 46 107 63 64 -10 -4 31 vhcurveto
          13 91 -30 7 -45 9 -52 2 rlinecurve
          hintmask 10111000
          97 -96 -102 vlineto
          -114 -19 -87 -77 -202 vvcurveto
          -195 79 -91 122 -17 vhcurveto
          endchar
        </CharString>
        <CharString name="circumflex">
          -47 668 -21 157 -20 hstem
          130 647 -85 callsubr
        </CharString>
        <CharString name="circumflex.cap">
          -265 759 -21 146 -20 hstem
          22 738 -27 callsubr
        </CharString>
        <CharString name="colon">
          -262 0 112 329 112 hstem
          100 138 vstem
          100 441 rmoveto
          5 callsubr
          -553 vmoveto
          5 callsubr
          endchar
        </CharString>
        <CharString name="comma">
          -305 -149 -21 276 -20 hstem
          88 81 callsubr
          119 -10 callsubr
          endchar
        </CharString>
        <CharString name="commaaccent">
          -334 -101 -21 206 -20 hstem
          87 105 vstem
          91 -122 -58 callsubr
          endchar
        </CharString>
        <CharString name="copyright">
          246 -37 79 64 88 257 87 62 79 hstem
          64 81 96 105 347 -72 callsubr
          111 177 rmoveto
          0 -64 -25 -55 -34 -30 11 112 124 18 10 65 18 65 -7 -2 13 vhcurveto
          10 79 rlineto
          9 -20 -59 8 -28 hhcurveto
          -101 -86 -38 -183 -154 79 -57 97 82 52 35 3 callsubr
        </CharString>
        <CharString name="currency">
          63 106 94 -91 -21 411 94 20 -20 hstemhm
          88 99 289 99 hintmask 01101100
          133 88 rmoveto
          59 60 rlineto
          hintmask 10101100
          -27 43 48 -15 49 hhcurveto
          47 47 14 26 42 hvcurveto
          hintmask 01011100
          59 -58 67 66 -59 58 rlineto
          23 35 17 44 60 vvcurveto
          60 -18 43 -24 35 vhcurveto
          59 58 -66 66 -61 -59 rlineto
          25 -40 -48 14 -45 hhcurveto
          -49 -46 -14 -26 -42 hvcurveto
          -60 60 -66 -67 58 -59 rlineto
          -22 -35 -17 -43 -58 vvcurveto
          -58 16 -45 22 -34 vhcurveto
          -59 -59 rlineto
          hintmask 10101100
          265 45 rmoveto
          -85 -60 43 107 106 60 43 85 84 60 -43 -106 -107 -45 -43 -99 hvcurveto
          endchar
        </CharString>
        <CharString name="d">
          11 -13 100 -66 -21 501 97 159 -20 hstemhm
          30 callsubr
          224 116 hintmask 01111100
          446 hmoveto
          76 757 -116 -178 hlineto
          0 -63 19 -60 -104 -117 -57 -257 vhcurveto
          hintmask 10111100
          -206 83 -91 110 74 56 41 31 42 vhcurveto
          6 hlineto
          hintmask 01111100
          -27 72 rmoveto
          hintmask 10111100
          0 -77 -44 -59 -20 -20 3 9 -10 vhcurveto
          -12 10 -26 27 145 vvcurveto
          131 18 49 15 19 vhcurveto
          15 12 22 6 31 hhcurveto
          65 61 -25 3 callsubr
        </CharString>
        <CharString name="degree">
          -239 399 89 140 89 hstem
          18 92 134 92 vstem
          177 399 rmoveto
          79 80 44 116 16 callsubr
          hvcurveto
          89 vmoveto
          -4 callsubr
        </CharString>
        <CharString name="dieresis">
          -5 677 93 hstem
          127 7 callsubr
          vstem
          127 677 -81 callsubr
        </CharString>
        <CharString name="dieresis.cap">
          -129 764 93 26 callsubr
          93 80 callsubr
          62 764 rmoveto
          120 93 -120 -35 callsubr
        </CharString>
        <CharString name="divide">
          43 28 109 106 99 107 110 hstem
          248 139 vstem
          44 243 rmoveto
          548 99 -548 hlineto
          204 -314 rmoveto
          139 109 -139 hlineto
          312 vmoveto
          139 110 -139 hlineto
          endchar
        </CharString>
        <CharString name="dollar">
          -62 -117 209 514 196 hstem
          47 121 45 96 53 80 callsubr
          213 -117 rmoveto
          96 109 hlineto
          104 20 69 80 111 vvcurveto
          135 -114 34 -80 39 vhcurveto
          -83 40 -37 19 60 vvcurveto
          32 10 18 13 11 vhcurveto
          10 12 19 5 32 hhcurveto
          73 109 -21 0 hvcurveto
          19 98 rlineto
          0 -71 21 -73 6 vhcurveto
          92 -97 -95 vlineto
          -111 -20 -56 -76 -93 vvcurveto
          -123 57 callsubr
          -27 -19 callsubr
          84 -48 101 -11 vhcurveto
          endchar
        </CharString>
        <CharString name="dotaccentcmb">
          -275 676 94 hstem
          99 80 callsubr
          99 676 36 callsubr
          endchar
        </CharString>
        <CharString name="dotaccentcmb.cap">
          -218 755 95 hstem
          129 80 callsubr
          129 755 18 callsubr
          95 31 callsubr
          endchar
        </CharString>
        <CharString name="dotlessi">
          21 -21 585 50 callsubr
          97 hmoveto
          -34 callsubr
        </CharString>
        <CharString name="dotlessj">
          -266 48 callsubr
          hstem
          115 81 callsubr
          -25 -171 -33 callsubr
        </CharString>
        <CharString name="e">
          -30 callsubr
          -101 callsubr
          endchar
        </CharString>
        <CharString name="eacute">
          -87 callsubr
          -244 310 -66 callsubr
        </CharString>
        <CharString name="ecircumflex">
          -30 callsubr
          206 -20 -101 callsubr
          -264 305 -85 callsubr
        </CharString>
        <CharString name="edieresis">
          -30 callsubr
          79 93 hstemhm
          62 122 -57 7 callsubr
          -47 118 hintmask 11111001
          -105 callsubr
          hintmask 11110110
          -287 335 -81 callsubr
        </CharString>
        <CharString name="egrave">
          -87 callsubr
          -266 379 -47 callsubr
        </CharString>
        <CharString name="eight">
          -30 -13 99 532 94 hstemhm
          39 122 -97 97 -97 115 203 116 -96 121 hintmask 11100010
          149 369 rmoveto
          -54 -28 -56 -63 -82 vvcurveto
          -104 82 -105 156 156 90 96 105 95 -71 50 -52 28 vhcurveto
          hintmask 11010100
          55 34 43 52 83 vvcurveto
          101 -71 81 -147 -142 -74 -76 -105 -75 37 -52 48 -35 vhcurveto
          104 -52 rmoveto
          hintmask 11100010
          111 -37 38 -32 -67 vvcurveto
          -59 -37 -36 -85 -90 -29 47 59 74 34 29 58 22 vhcurveto
          44 89 rmoveto
          hintmask 11001100
          -85 34 -33 36 59 vvcurveto
          49 24 34 78 75 26 -37 -56 -64 -33 -35 -52 -20 vhcurveto
          endchar
        </CharString>
        <CharString name="emdash">
          231 278 98 hstem
          62 278 rmoveto
          700 98 -700 hlineto
          endchar
        </CharString>
        <CharString name="endash">
          -4 278 98 hstem
          42 278 rmoveto
          505 98 -504 hlineto
          endchar
        </CharString>
        <CharString name="equal">
          44 143 99 98 100 hstem
          44 340 rmoveto
          548 100 -548 hlineto
          -297 vmoveto
          548 99 -548 hlineto
          endchar
        </CharString>
        <CharString name="eth">
          10 -13 92 349 93 249 -20 hstem
          65 117 237 117 vstem
          241 553 rmoveto
          111 54 39 -39 27 -40 15 -45 rlinecurve
          -5 -3 rlineto
          19 -28 -42 22 -67 hhcurveto
          -166 -60 -111 -144 -163 58 -116 177 170 60 109 175 6 hvcurveto
          1 18 0 19 19 vvcurveto
          -3 119 -25 125 -68 80 57 30 rcurveline
          -7 81 -103 -55 -29 23 -32 21 -35 19 rlinecurve
          -60 -64 18 -14 21 -14 23 -18 rlinecurve
          -61 -28 rlineto
          69 -553 rmoveto
          -91 -29 35 152 129 32 33 88 87 30 -33 -129 -152 -27 -35 -90 hvcurveto
          endchar
        </CharString>
        <CharString name="exclam">
          -309 0 109 590 -20 hstemhm
          74 138 -126 112 hintmask 11010000
          94 196 rmoveto
          96 hlineto
          16 503 27 callsubr
          hintmask 11100000
          -5 -699 47 callsubr
        </CharString>
        <CharString name="exclamdown">
          -310 -92 -21 588 110 hstemhm
          74 138 -125 111 hintmask 11010000
          80 -113 rmoveto
          126 hlineto
          -15 502 rlineto
          -96 hlineto
          hintmask 11100000
          -21 86 rmoveto
          138 110 -138 hlineto
          endchar
        </CharString>
        <CharString name="f">
          -232 21 -21 463 90 123 94 hstem
          109 38 callsubr
          109 39 callsubr
          463 129 90 -129 hlineto
          112 1 18 11 46 hhcurveto
          26 50 -3 0 hvcurveto
          8 94 rlineto
          0 -46 3 -26 -108 -76 -50 -169 -9 vhcurveto
          -67 -14 rlineto
          -71 67 vlineto
          endchar
        </CharString>
        <CharString name="five">
          -60 -13 102 239 99 175 97 hstem
          363 121 vstem
          20 63 rmoveto
          0 104 -76 132 140 88 83 142 170 -123 36 -165 9 vhcurveto
          25 177 232 -4 rlineto
          99 -329 vlineto
          -55 -373 rlineto
          0 55 2 41 96 56 -9 -18 20 vhcurveto
          16 -15 10 -43 -38 vvcurveto
          -81 -22 -35 -72 -89 -122 60 0 vhcurveto
          endchar
        </CharString>
        <CharString name="four">
          -33 21 -21 152 96 463 -20 hstem
          339 81 callsubr
          21 152 rmoveto
          319 hlineto
          -2 -152 rlineto
          117 hlineto
          -1 152 rlineto
          65 103 hlineto
          -65 -2 rlineto
          257 -88 vlineto
          -26 -259 -195 -5 rlineto
          5 vlineto
          153 445 -112 15 -165 -479 rlineto
          endchar
        </CharString>
        <CharString name="g">
          -48 -179 94 267 92 232 92 hstemhm
          39 105 230 112 -112 146 -117 98 hintmask 11110010
          53 -150 rmoveto
          0 99 -29 114 138 97 48 87 60 -36 29 -121 50 vhcurveto
          -71 29 -22 8 6 vvcurveto
          5 4 39 0 vhcurveto
          hintmask 11111000
          148 1 83 84 114 vvcurveto
          59 -30 66 0 vhcurveto
          hintmask 11110100
          64 10 rlineto
          70 vlineto
          0 -161 12 -69 -134 -117 -52 -162 -97 52 -65 92 -30 vhcurveto
          0 -41 -111 -4 vvcurveto
          -5 86 -33 50 -21 vhcurveto
          hintmask 11110010
          91 -38 34 -18 -22 vvcurveto
          -13 -13 -12 -63 -82 -92 13 13 -87 vhcurveto
          291 557 rmoveto
          hintmask 11111000
          6 -4 11 -42 -67 vvcurveto
          -87 -32 -24 -80 -85 -33 25 86 98 37 23 91 vhcurveto
          0 79 -3 6 -5 vhcurveto
          endchar
        </CharString>
        <CharString name="germandbls">
          52 -13 93 -59 -21 622 90 hstemhm
          97 117 93 230 53 callsubr
          -86 122 hintmask 01110100
          97 hmoveto
          117 480 hlineto
          101 31 41 72 60 45 -26 -78 vhcurveto
          hintmask 10111000
          -73 -29 -29 -86 -7 vhcurveto
          -86 23 vlineto
          hintmask 10110010
          89 32 -40 -83 -88 -28 -32 -70 -22 -24 2 2 -12 hvcurveto
          -12 -89 rlineto
          0 40 -8 40 117 93 69 143 119 -70 37 -56 14 vhcurveto
          6 vlineto
          hintmask 01111000
          34 12 56 41 95 vvcurveto
          127 -107 62 -113 -115 -105 -69 -169 vhcurveto
          endchar
        </CharString>
        <CharString name="grave">
          66 callsubr
          162 721 -47 callsubr
        </CharString>
        <CharString name="grave.cap">
          -116 764 -21 143 -20 hstem
          114 798 -32 callsubr
        </CharString>
        <CharString name="greater">
          63 32 -21 566 -20 hstem
          57 11 rmoveto
          540 240 rlineto
          86 vlineto
          -540 240 rlineto
          -112 vlineto
          395 -168 rlineto
          -6 vlineto
          -395 -169 rlineto
          endchar
        </CharString>
        <CharString name="guillemotleft">
          -72 103 -21 510 -20 hstem
          182 82 rmoveto
          86 51 -123 201 64 callsubr
          123 201 -86 51 -150 -255 rlineto
          373 -254 rmoveto
          85 52 -121 199 64 callsubr
          121 199 -85 51 -149 -253 rlineto
          endchar
        </CharString>
        <CharString name="guillemotright">
          -72 103 -21 510 -20 hstem
          253 133 rmoveto
          86 -51 150 255 -150 255 -86 -51 123 -201 rlineto
          -6 vlineto
          -345 -199 rmoveto
          86 -52 69 callsubr
          -86 -51 122 -199 rlineto
          -6 vlineto
          endchar
        </CharString>
        <CharString name="guilsinglleft">
          70 callsubr
          182 83 rmoveto
          87 53 -123 198 64 callsubr
          123 198 -87 52 -150 -253 rlineto
          endchar
        </CharString>
        <CharString name="guilsinglright">
          70 callsubr
          31 136 rmoveto
          88 -53 69 callsubr
          -88 -52 123 -198 rlineto
          -6 vlineto
          endchar
        </CharString>
        <CharString name="h">
          14 21 -21 495 104 158 -20 hstem
          77 116 218 38 callsubr
          77 -38 callsubr
          209 -116 vlineto
          endchar
        </CharString>
        <CharString name="hbar">
          26 21 -21 495 104 43 80 35 -20 hstem
          89 116 218 38 callsubr
          89 -38 callsubr
          94 180 80 -180 35 -116 -35 -81 -80 81 vlineto
          endchar
        </CharString>
        <CharString name="hyphen">
          -274 278 98 hstem
          38 243 vstem
          38 278 rmoveto
          243 98 -243 hlineto
          endchar
        </CharString>
        <CharString name="i">
          -28 callsubr
          98 94 hstem
          97 38 callsubr
          97 39 callsubr
          -20 callsubr
          hlineto
          -9 78 63 callsubr
        </CharString>
        <CharString name="iacute">
          28 callsubr
          44 652 rmoveto
          262 68 -32 93 -252 -93 rlineto
          75 -720 rmoveto
          -34 callsubr
        </CharString>
        <CharString name="icircumflex">
          -28 callsubr
          239 50 callsubr
          20 649 rmoveto
          131 67 rlineto
          7 hlineto
          130 -67 35 51 -138 104 17 callsubr
          -137 -104 rlineto
          110 -700 rmoveto
          -34 callsubr
        </CharString>
        <CharString name="idieresis">
          -28 callsubr
          112 93 hstemhm
          1 121 -25 116 -25 120 hintmask 11110100
          1 677 rmoveto
          121 93 -121 hlineto
          187 -22 callsubr
          hintmask 11101000
          -91 -770 rmoveto
          -34 callsubr
        </CharString>
        <CharString name="igrave">
          28 callsubr
          -9 720 rmoveto
          262 -68 22 68 -252 93 rlineto
          74 -813 rmoveto
          -34 callsubr
        </CharString>
        <CharString name="ij">
          18 -178 98 101 -36 callsubr
          98 94 hstem
          99 115 184 81 callsubr
          99 hmoveto
          115 585 -115 hlineto
          160 -756 rmoveto
          0 50 -7 28 97 79 58 181 vhcurveto
          521 -115 -522 vlineto
          -126 -8 -14 -48 -32 -39 6 0 vhcurveto
          -183 737 rmoveto
          135 94 -135 hlineto
          300 -94 rmoveto
          135 94 -135 hlineto
          endchar
        </CharString>
        <CharString name="itilde">
          -28 callsubr
          96 84 -41 82 hstemhm
          97 116 hintmask 11011000
          44 663 rmoveto
          0 10 41 13 vhcurveto
          hintmask 11101000
          19 111 -43 45 hhcurveto
          43 27 31 84 1 hvcurveto
          -65 9 rlineto
          0 -9 -40 -12 vhcurveto
          hintmask 11011000
          -21 -108 41 -46 hhcurveto
          -43 -29 -31 -84 -1 hvcurveto
          118 -671 rmoveto
          -34 callsubr
        </CharString>
        <CharString name="j">
          -265 48 callsubr
          98 94 hstem
          115 38 callsubr
          -25 -171 rmoveto
          0 49 -7 33 93 81 58 181 vhcurveto
          524 -116 -15 callsubr
          118 737 63 callsubr
        </CharString>
        <CharString name="jcircumflex">
          -266 48 callsubr
          239 -20 hstem
          115 81 callsubr
          31 649 rmoveto
          133 67 rlineto
          7 hlineto
          132 -67 35 51 -140 104 17 callsubr
          -139 -104 rlineto
          -23 -871 -33 callsubr
        </CharString>
        <CharString name="k">
          -22 21 72 callsubr
          20 callsubr
          351 -321 rmoveto
          150 hlineto
          -263 314 rlineto
          5 vlineto
          245 263 rlineto
          -148 hlineto
          -223 -268 rlineto
          endchar
        </CharString>
        <CharString name="kcommaaccent">
          -22 -240 -21 282 72 callsubr
          44 105 20 callsubr
          361 -321 rmoveto
          -14 callsubr
          47 -575 -58 callsubr
          endchar
        </CharString>
        <CharString name="kgreenlandic">
          -22 21 -21 582 -20 hstem
          93 106 vstem
          448 hmoveto
          -14 callsubr
          -106 -314 rmoveto
          106 506 hlineto
          -26 76 rlineto
          -80 hlineto
          endchar
        </CharString>
        <CharString name="l">
          -313 21 -21 757 -20 hstem
          82 38 callsubr
          82 39 callsubr
          757 -116 hlineto
          endchar
        </CharString>
        <CharString name="ldot">
          -174 21 -21 352 112 293 -20 hstem
          82 115 77 127 vstem
          82 hmoveto
          115 757 -115 hlineto
          192 -405 rmoveto
          127 112 -127 hlineto
          endchar
        </CharString>
        <CharString name="less">
          61 32 -21 566 -20 hstem
          67 251 rmoveto
          541 -240 rlineto
          111 vlineto
          -396 169 64 callsubr
          396 168 rlineto
          112 vlineto
          -541 -240 rlineto
          endchar
        </CharString>
        <CharString name="logicalnot">
          5 118 225 -100 100 hstemhm
          459 102 hintmask 01100000
          20 243 rmoveto
          439 hlineto
          hintmask 10100000
          -125 102 225 -541 vlineto
          endchar
        </CharString>
        <CharString name="lslash">
          -267 21 -21 757 -20 hstemhm
          21 202 53 callsubr
          -115 197 hintmask 11100000
          108 hmoveto
          115 384 hlineto
          hintmask 11001000
          82 51 rlineto
          97 vlineto
          hintmask 11100000
          -82 -52 rlineto
          277 vlineto
          hintmask 11010000
          -115 -350 hlineto
          hintmask 11100000
          -87 -54 rlineto
          -95 vlineto
          hintmask 11010000
          87 54 rlineto
          endchar
        </CharString>
        <CharString name="m">
          348 21 -21 494 105 -14 -20 37 callsubr
          210 116 210 116 cntrmask 00011100
          hintmask 11011100
          78 callsubr
          447 hlineto
          16 29 64 31 54 hhcurveto
          46 17 -12 -124 hvcurveto
          -358 116 382 vlineto
          22 -2 20 -2 20 vhcurveto
          14 22 70 36 58 hhcurveto
          57 7 -32 -106 hvcurveto
          -356 116 384 vlineto
          128 -32 87 -115 -80 -67 -42 -34 -55 vhcurveto
          47 -20 -42 29 -62 hhcurveto
          -80 -84 -50 -22 -37 hvcurveto
          -5 hlineto
          hintmask 10111100
          43 callsubr
          endchar
        </CharString>
        <CharString name="macron">
          -7 680 77 hstem
          137 680 rmoveto
          318 77 -318 hlineto
          endchar
        </CharString>
        <CharString name="mu">
          27 74 callsubr
          103 -69 -36 callsubr
          hstemhm
          80 103 -103 1 callsubr
          hintmask 10110110
          80 -166 rmoveto
          108 hlineto
          -10 162 4 4 rlineto
          hintmask 11011010
          -7 13 22 -6 23 hhcurveto
          68 86 50 21 37 hvcurveto
          6 hlineto
          hintmask 10111010
          14 -58 rlineto
          75 -20 callsubr
          -447 hlineto
          hintmask 11010110
          -15 -24 -71 -33 -50 hhcurveto
          -30 -16 7 12 -10 hvcurveto
          -11 16 -2 36 72 vvcurveto
          352 -116 vlineto
          endchar
        </CharString>
        <CharString name="multiply">
          -6 69 -21 494 -20 hstem
          117 48 rmoveto
          177 176 175 -175 69 70 -175 175 177 177 -70 71 -178 -178 -175 176 -69 -70 175 -175 -176 -176 rlineto
          endchar
        </CharString>
        <CharString name="n">
          22 callsubr
          37 callsubr
          215 116 hintmask 11011000
          -51 callsubr
          hintmask 10111000
          43 callsubr
          endchar
        </CharString>
        <CharString name="nacute">
          22 callsubr
          248 -20 37 callsubr
          215 116 hintmask 11011100
          -51 callsubr
          hintmask 10111100
          43 callsubr
          106 67 -66 callsubr
        </CharString>
        <CharString name="nine">
          -20 -13 99 184 101 242 99 hstem
          52 116 230 122 vstem
          70 50 rmoveto
          0 101 -63 106 174 69 135 234 272 -96 84 -144 -143 -85 -85 -144 -150 91 -63 135 54 66 12 0 vhcurveto
          -2 -87 -18 -63 -26 -25 rrcurveto
          -13 -13 -20 -8 -35 hhcurveto
          -78 -100 51 0 hvcurveto
          292 254 rmoveto
          0 -63 -20 -61 -97 -9 45 64 90 17 43 92 31 28 -4 -11 18 vhcurveto
          21 -12 23 -34 -161 vvcurveto
          endchar
        </CharString>
        <CharString name="ntilde">
          22 callsubr
          96 82 -37 80 37 callsubr
          215 73 -73 116 hintmask 11010110
          -50 callsubr
          vlineto
          hintmask 11010101
          116 386 hlineto
          -25 callsubr
          hintmask 10101110
          43 callsubr
          93 78 2 callsubr
          hintmask 11010110
          -65 callsubr
          hintmask 11001110
          -40 callsubr
        </CharString>
        <CharString name="numbersign">
          -22 21 -21 183 99 130 99 184 -20 hstem
          69 hmoveto
          99 hlineto
          28 183 rlineto
          115 hlineto
          -28 -183 rlineto
          98 hlineto
          28 183 rlineto
          98 99 -82 hlineto
          20 130 rlineto
          97 99 -81 hlineto
          29 184 rlineto
          -99 hlineto
          -29 -184 rlineto
          -115 hlineto
          29 184 rlineto
          -98 hlineto
          -29 -184 rlineto
          -97 -99 81 hlineto
          -20 -130 rlineto
          -96 -99 80 hlineto
          115 99 rmoveto
          20 130 rlineto
          115 hlineto
          -20 -130 rlineto
          endchar
        </CharString>
        <CharString name="o">
          -7 callsubr
          -98 callsubr
          endchar
        </CharString>
        <CharString name="oacute">
          -78 callsubr
          -126 573 -66 callsubr
        </CharString>
        <CharString name="ocircumflex">
          -7 callsubr
          206 -20 -98 callsubr
          -145 568 -85 callsubr
        </CharString>
        <CharString name="odieresis">
          -7 callsubr
          79 93 hstemhm
          30 callsubr
          -50 7 callsubr
          -49 119 hintmask 11110010
          -104 callsubr
          hintmask 11101100
          -168 598 -81 callsubr
        </CharString>
        <CharString name="oe">
          352 -13 95 168 89 166 93 26 callsubr
          235 123 230 118 vstem
          484 65 rmoveto
          -55 43 63 -23 78 hhcurveto
          108 98 48 0 hvcurveto
          -28 88 rlineto
          -92 callsubr
          -74 -64 -21 -58 -44 vhcurveto
          -4 hlineto
          51 -37 -56 28 -87 hhcurveto
          -76 callsubr
          87 56 28 50 37 hvcurveto
          -180 14 rmoveto
          -89 callsubr
          240 258 -56 callsubr
          -51 -110 1 hvcurveto
          endchar
        </CharString>
        <CharString name="ograve">
          -78 callsubr
          -148 642 -47 callsubr
        </CharString>
        <CharString name="one">
          -60 0 99 607 -20 hstem
          246 114 vstem
          73 hmoveto
          436 100 hlineto
          -149 -2 rlineto
          600 vlineto
          -116 8 -209 -187 76 -76 133 138 rlineto
          5 hlineto
          -6 -483 -170 2 rlineto
          endchar
        </CharString>
        <CharString name="onehalf">
          374 0 77 -65 -21 307 80 -49 81 323 -20 hstemhm
          167 91 548 89 hintmask 01101110
          261 -9 rmoveto
          107 hlineto
          170 356 191 386 rlineto
          -106 24 callsubr
          -399 -95 -52 callsubr
          hintmask 10011110
          564 -378 -69 callsubr
        </CharString>
        <CharString name="onequarter">
          360 12 -21 30 -21 79 77 142 80 355 -20 hstemhm
          167 91 513 88 hintmask 10111110
          260 -6 callsubr
          119 -314 rmoveto
          187 hlineto
          hintmask 01111110
          -1 -79 rlineto
          88 40 callsubr
          -12 -147 -100 -3 94 254 -81 9 rlineto
          0 -90 41 callsubr
          -518 162 -52 callsubr
          endchar
        </CharString>
        <CharString name="onesuperior">
          -201 298 80 329 -20 hstem
          167 91 vstem
          67 298 -52 callsubr
          endchar
        </CharString>
        <CharString name="ordfeminine">
          -158 289 80 107 74 78 79 hstem
          42 91 142 89 vstem
          301 298 rmoveto
          63 259 hlineto
          94 -40 56 -115 -65 -89 -34 0 vhcurveto
          21 -75 rlineto
          0 70 30 61 61 7 -15 -63 vhcurveto
          -121 -112 -6 -120 -94 45 -41 66 61 69 47 0 hvcurveto
          4 hlineto
          -12 61 rmoveto
          0 -53 -28 -42 -32 -15 14 37 41 11 15 65 41 25 -2 0 vhcurveto
          endchar
        </CharString>
        <CharString name="ordmasculine">
          -222 289 82 255 81 hstem
          16 95 150 95 vstem
          185 289 rmoveto
          131 40 80 129 129 -40 80 -131 -128 -41 -80 -129 -129 41 -80 128 hvcurveto
          82 vmoveto
          -54 -20 21 106 108 20 20 54 55 21 -20 -108 -106 -21 -21 -55 hvcurveto
          endchar
        </CharString>
        <CharString name="oslash">
          6 -17 -21 25 92 426 93 29 -20 hstem
          63 120 233 80 callsubr
          90 -38 rmoveto
          89 hlineto
          20 44 rlineto
          -12 28 33 -7 40 hhcurveto
          179 57 117 188 116 -23 90 -58 51 hvcurveto
          38 78 rlineto
          -89 hlineto
          -19 -41 rlineto
          8 -24 -29 4 -32 hhcurveto
          -179 -58 -118 -188 -107 19 -84 50 -52 hvcurveto
          58 117 rmoveto
          -5 30 -2 42 54 vvcurveto
          179 28 34 90 17 15 -1 -4 13 vhcurveto
          -80 -176 rlineto
          66 -31 rmoveto
          68 144 rlineto
          11 -30 5 -46 -69 vvcurveto
          -177 -25 -36 -91 -26 -20 2 10 -15 vhcurveto
          endchar
        </CharString>
        <CharString name="otilde">
          -7 callsubr
          63 82 -37 80 hstemhm
          30 callsubr
          -70 70 235 69 -69 119 hintmask 11011001
          -104 callsubr
          -125 584 2 callsubr
          hintmask 11101010
          -65 callsubr
          hintmask 11010110
          -40 callsubr
        </CharString>
        <CharString name="p">
          12 -166 250 -97 97 412 102 -13 -20 hstemhm
          82 116 225 120 hintmask 10101100
          82 -166 rmoveto
          116 165 hlineto
          hintmask 01101100
          0 69 -12 48 110 118 58 258 207 -76 88 -111 -85 -64 -53 -20 -30 vhcurveto
          -5 hlineto
          hintmask 10011100
          -14 60 rlineto
          -76 hlineto
          116 -136 rmoveto
          hintmask 10101100
          0 81 47 69 52 23 -1 -182 -149 -18 -47 -24 -19 vhcurveto
          -12 -16 -20 -2 -21 hhcurveto
          -58 -68 18 3 callsubr
        </CharString>
        <CharString name="paragraph">
          104 -143 -21 762 101 hstem
          263 116 112 38 callsubr
          263 -164 rmoveto
          116 762 112 -762 116 863 -328 hlineto
          -147 -91 -60 -197 -191 85 -63 137 -4 hvcurveto
          endchar
        </CharString>
        <CharString name="parenleft">
          65 callsubr
          61 118 vstem
          312 -56 rmoveto
          -93 62 -40 141 189 vvcurveto
          190 40 141 93 61 vhcurveto
          -50 68 rlineto
          -104 -59 -97 -129 -272 vvcurveto
          -269 97 -132 104 -59 vhcurveto
          endchar
        </CharString>
        <CharString name="parenright">
          65 callsubr
          156 118 vstem
          74 -124 rmoveto
          103 59 97 132 269 vvcurveto
          272 -97 129 -103 59 vhcurveto
          -51 -68 rlineto
          93 -61 40 -141 -190 vvcurveto
          -189 -40 -141 -93 -62 vhcurveto
          endchar
        </CharString>
        <CharString name="percent">
          219 -9 85 -68 -21 229 89 94 89 140 89 16 -20 hstemhm
          45 92 135 91 86 92 134 92 hintmask 1011011111000000
          170 -9 rmoveto
          103 hlineto
          170 356 190 386 rlineto
          -102 24 callsubr
          -170 6 rmoveto
          79 80 44 116 hvcurveto
          hintmask 0111101111000000
          16 callsubr
          vhcurveto
          404 -412 rmoveto
          79 80 43 117 116 -80 42 -79 -80 -79 -42 -116 -117 79 -43 80 hvcurveto
          -404 501 rmoveto
          -39 -28 17 54 52 28 17 39 40 28 -17 -52 -54 -28 -17 -40 hvcurveto
          hintmask 1011101111000000
          404 -412 rmoveto
          -4 callsubr
        </CharString>
        <CharString name="period">
          -316 0 112 hstem
          68 138 vstem
          68 hmoveto
          5 callsubr
          endchar
        </CharString>
        <CharString name="periodcentered">
          -265 268 153 hstem
          88 154 vstem
          88 345 rmoveto
          -56 40 -21 37 38 39 21 56 59 -39 17 -38 -37 -40 -17 -59 vhcurveto
          endchar
        </CharString>
        <CharString name="plus">
          37 40 -21 224 99 222 -20 hstem
          264 101 vstem
          264 19 rmoveto
          101 224 220 99 -220 222 -101 -222 -220 -99 220 hlineto
          endchar
        </CharString>
        <CharString name="plusminus">
          -13 9 99 219 98 152 -20 hstem
          239 101 vstem
          44 9 rmoveto
          491 99 -491 hlineto
          219 vmoveto
          195 -158 101 158 195 98 -195 152 -101 -152 -195 hlineto
          endchar
        </CharString>
        <CharString name="q">
          7 74 callsubr
          99 415 97 26 callsubr
          54 callsubr
          vstem
          402 -166 rmoveto
          116 728 hlineto
          0 -124 36 -103 -149 -80 -73 -222 -254 106 -62 102 67 65 28 0 vhcurveto
          95 vmoveto
          0 -64 -24 -67 -68 -21 28 188 116 12 45 17 20 vhcurveto
          12 12 15 6 43 hhcurveto
          65 56 -14 3 callsubr
        </CharString>
        <CharString name="question">
          -112 0 109 498 105 hstemhm
          124 137 -122 103 96 120 hintmask 11011000
          242 196 rmoveto
          3 68 39 29 45 32 rrcurveto
          61 44 68 48 105 vvcurveto
          110 -89 80 -129 -114 -103 -63 0 vhcurveto
          8 -18 23 -55 8 -17 rrcurveto
          0 104 48 83 34 17 -8 -4 6 vhcurveto
          18 -12 14 -19 -37 vvcurveto
          -144 -205 24 6 -211 vhcurveto
          hintmask 11101000
          -15 -196 rmoveto
          137 109 -137 hlineto
          endchar
        </CharString>
        <CharString name="questiondown">
          -112 -126 104 498 109 hstemhm
          22 121 78 138 -120 103 hintmask 11101000
          239 389 rmoveto
          -4 -68 -38 -29 -45 -32 rrcurveto
          -61 -44 -69 -47 -106 vvcurveto
          -110 90 -79 129 113 104 62 0 vhcurveto
          -7 18 -25 56 -7 17 rrcurveto
          0 -104 -49 -82 -35 -17 8 4 -6 vhcurveto
          -18 12 -14 19 38 vvcurveto
          143 206 -24 -7 211 vhcurveto
          hintmask 11110000
          -121 87 47 callsubr
        </CharString>
        <CharString name="quotedbl">
          -218 485 -21 257 -20 hstem
          57 84 0 91 vstem
          64 464 rmoveto
          69 hlineto
          17 224 rlineto
          33 -102 vlineto
          2 -48 rlineto
          190 -209 rmoveto
          69 hlineto
          18 224 rlineto
          33 -103 vlineto
          1 -50 rlineto
          endchar
        </CharString>
        <CharString name="quotedblbase">
          -144 -119 -21 272 -20 hstem
          82 100 81 99 vstem
          110 -138 rmoveto
          36 33 35 64 1 102 rrcurveto
          28 -3 29 35 callsubr
          -73 -48 vvcurveto
          -52 -9 -32 -19 -28 vhcurveto
          237 -39 rmoveto
          36 33 35 64 103 vvcurveto
          27 -2 31 35 callsubr
          -72 -50 vvcurveto
          -51 -9 -33 -19 -28 vhcurveto
          endchar
        </CharString>
        <CharString name="quotedblleft">
          -182 486 -21 273 -20 hstem
          52 100 79 101 vstem
          338 465 rmoveto
          0 -6 69 49 vvcurveto
          52 9 31 18 28 vhcurveto
          -54 35 -34 -34 -39 -59 -1 -102 rlinecurve
          -28 2 -27 2 -14 vhcurveto
          -77 hmoveto
          0 -6 74 45 vvcurveto
          52 10 35 59 callsubr
          -66 46 callsubr
        </CharString>
        <CharString name="quotedblright">
          -182 469 -21 274 -20 hstem
          79 101 80 100 vstem
          106 457 rmoveto
          35 35 39 59 102 vvcurveto
          27 -2 28 -2 14 vhcurveto
          -103 hlineto
          0 6 -69 -49 vvcurveto
          -52 -8 -31 -19 -28 vhcurveto
          236 -45 rmoveto
          36 35 36 66 9 callsubr
          -35 -18 -28 vhcurveto
          endchar
        </CharString>
        <CharString name="quoteleft">
          -358 486 77 callsubr
          55 100 vstem
          161 465 rmoveto
          0 -6 74 45 vvcurveto
          52 10 33 59 callsubr
          -64 46 callsubr
        </CharString>
        <CharString name="quoteright">
          -358 471 -21 272 -20 hstem
          83 100 vstem
          111 450 rmoveto
          36 35 36 64 9 callsubr
          -33 -18 -28 vhcurveto
          endchar
        </CharString>
        <CharString name="quotesinglbase">
          -335 -117 77 callsubr
          84 100 vstem
          112 -138 rmoveto
          36 34 35 64 1 102 rrcurveto
          27 -3 30 35 callsubr
          -72 -48 vvcurveto
          -52 -9 -32 -19 -29 vhcurveto
          endchar
        </CharString>
        <CharString name="quotesingle">
          -385 487 -21 257 -20 hstem
          61 85 vstem
          68 466 rmoveto
          70 hlineto
          17 223 rlineto
          34 -102 vlineto
          1 -48 rlineto
          endchar
        </CharString>
        <CharString name="r">
          -177 21 -21 49 callsubr
          37 callsubr
          hintmask 11010000
          93 hmoveto
          -68 callsubr
          hintmask 10110000
          60 callsubr
          endchar
        </CharString>
        <CharString name="rcaron">
          -177 21 -21 49 callsubr
          33 63 153 -20 37 callsubr
          hintmask 11001100
          93 hmoveto
          -68 callsubr
          hintmask 10111100
          60 callsubr
          -31 183 -18 callsubr
        </CharString>
        <CharString name="rcommaaccent">
          -177 -240 -21 206 55 49 callsubr
          37 callsubr
          hintmask 11101000
          102 -261 -58 callsubr
          33 224 rmoveto
          -68 callsubr
          hintmask 11011000
          -15 61 rlineto
          -73 hlineto
          endchar
        </CharString>
        <CharString name="registered">
          246 -37 79 77 220 114 78 69 79 hstem
          64 81 126 90 118 97 117 -72 callsubr
          -149 77 rmoveto
          92 143 hlineto
          18 17 -1 18 hhcurveto
          60 -142 rlineto
          106 hlineto
          -80 149 rlineto
          3 vlineto
          40 14 36 40 74 vvcurveto
          97 -59 35 -92 -57 -77 -6 -2 -21 vhcurveto
          2 -213 rlineto
          90 139 rmoveto
          4 34 4 27 hhcurveto
          42 10 -16 -37 -45 -12 -16 -38 -20 -28 1 2 -20 hvcurveto
          36 1 35 36 vvcurveto
          endchar
        </CharString>
        <CharString name="ring">
          -361 642 52 74 53 hstem
          22 56 74 57 vstem
          22 731 -48 callsubr
        </CharString>
        <CharString name="ring.cap">
          -310 727 54 67 55 hstem
          48 58 71 59 vstem
          48 814 -49 callsubr
        </CharString>
        <CharString name="s">
          -81 -13 96 416 99 hstem
          49 111 189 113 vstem
          47 39 rmoveto
          0 107 -52 107 131 70 79 114 120 -77 20 -90 26 vhcurveto
          -100 29 -35 18 46 vvcurveto
          21 7 14 7 8 vhcurveto
          9 8 15 8 43 hhcurveto
          74 104 -25 0 hvcurveto
          18 92 rlineto
          11 -32 -75 21 -77 hhcurveto
          -142 -61 -71 -101 -115 80 -25 86 -27 hvcurveto
          83 -26 51 -11 -62 vvcurveto
          -24 -8 -24 -14 -13 vhcurveto
          -10 -11 -19 -6 -27 hhcurveto
          -78 -117 50 3 callsubr
        </CharString>
        <CharString name="section">
          -39 -93 99 608 97 hstemhm
          52 111 -90 111 209 111 hintmask 11011000
          50 -39 rmoveto
          0 100 -54 115 111 96 61 117 30 -9 39 -24 27 vhcurveto
          34 29 31 39 56 186 -320 -56 119 vvcurveto
          50 29 10 46 80 84 -25 0 vhcurveto
          19 96 rlineto
          8 -23 -67 18 -75 hhcurveto
          -133 -71 -63 -98 -44 15 -33 27 -25 hvcurveto
          hintmask 11101000
          -39 -29 -24 -43 -50 vvcurveto
          -185 273 44 31 -90 vhcurveto
          3 -10 1 -10 -2 -11 rrcurveto
          -46 -4 -16 -12 -59 hhcurveto
          -85 -113 51 0 hvcurveto
          278 173 rmoveto
          -118 42 -78 4 54 vvcurveto
          26 14 25 16 15 vhcurveto
          27 -11 30 -8 51 -17 rrcurveto
          52 -16 40 -15 -37 vvcurveto
          -21 -18 -25 -16 -16 vhcurveto
          endchar
        </CharString>
        <CharString name="semicolon">
          -262 -149 -21 611 112 hstemhm
          111 115 -115 127 hintmask 11100000
          142 -10 callsubr
          21 575 rmoveto
          hintmask 11010000
          5 callsubr
          endchar
        </CharString>
        <CharString name="seven">
          -79 13 -21 608 99 hstem
          73 2 rmoveto
          123 -10 292 635 rlineto
          72 -461 -102 vlineto
          338 7 rlineto
          -6 vlineto
          endchar
        </CharString>
        <CharString name="six">
          -18 -13 98 246 99 179 103 hstem
          52 124 231 81 callsubr
          490 682 rmoveto
          0 -71 30 -89 -151 -127 -74 -306 -256 91 -89 150 142 87 82 148 159 -98 54 -157 -40 -51 -5 0 vhcurveto
          155 11 37 29 89 hhcurveto
          65 86 -21 0 hvcurveto
          -291 -267 rmoveto
          0 60 10 55 97 22 -29 -88 -94 -26 -35 -82 -53 -24 13 10 -12 vhcurveto
          -12 11 -25 33 102 vvcurveto
          endchar
        </CharString>
        <CharString name="slash">
          -131 -77 -21 797 -20 hstem
          -4 -98 rmoveto
          114 hlineto
          158 383 179 414 rlineto
          -114 hlineto
          -153 -374 rlineto
          endchar
        </CharString>
        <CharString name="space">
          -358 endchar
        </CharString>
        <CharString name="sterling">
          -12 0 102 235 87 188 100 hstem
          155 81 callsubr
          64 hmoveto
          455 103 hlineto
          -249 -2 rlineto
          236 184 87 -183 vlineto
          161 4 22 27 88 hhcurveto
          44 50 -8 -6 43 hvcurveto
          12 94 rlineto
          10 -36 -56 10 -46 hhcurveto
          -129 -104 -61 -227 -8 hvcurveto
          -91 -87 90 -237 -90 hlineto
          endchar
        </CharString>
        <CharString name="t">
          -209 -11 98 376 90 136 -20 hstemhm
          104 233 vstemhm
          104 190 rmoveto
          -168 58 -33 96 45 34 8 0 vhcurveto
          93 vlineto
          0 -34 -3 -30 vhcurveto
          hintmask 11110000
          -47 -6 8 90 hvcurveto
          278 118 90 -117 136 -89 vlineto
          -23 -138 -72 -14 rlineto
          -72 67 vlineto
          endchar
        </CharString>
        <CharString name="thorn">
          20 74 callsubr
          73 callsubr
          96 115 220 119 vstem
          211 480 rmoveto
          0 64 20 63 60 33 21 -215 -143 -24 -50 -18 -15 vhcurveto
          -10 -11 -16 -5 -35 hhcurveto
          -51 -54 12 2 -11 hvcurveto
          -115 -263 rmoveto
          115 166 hlineto
          -7 44 45 -6 28 hhcurveto
          110 112 57 253 212 -70 89 -129 -55 -85 -19 0 hvcurveto
          178 -115 vlineto
          endchar
        </CharString>
        <CharString name="three">
          -66 -13 102 232 95 195 101 hstemhm
          332 119 -101 101 -101 123 hintmask 11100100
          8 51 rmoveto
          0 108 -64 128 168 61 98 115 119 -66 40 -51 14 vhcurveto
          5 vlineto
          hintmask 11110000
          30 13 65 31 108 vvcurveto
          138 -100 44 -132 -51 -79 -9 -11 -44 vhcurveto
          14 -94 rlineto
          9 72 34 4 40 hhcurveto
          42 44 -3 -15 19 hvcurveto
          17 -13 5 -24 -37 vvcurveto
          -88 -49 -2 -165 -13 vhcurveto
          -95 110 vlineto
          hintmask 11101000
          84 38 -31 -98 -70 -21 -33 -71 -89 -122 48 3 callsubr
        </CharString>
        <CharString name="threequarters">
          312 12 -21 30 -21 79 77 134 80 102 70 85 81 25 -20 hstemhm
          101 203 -91 91 -91 103 407 88 hintmask 1011111001100000
          217 -6 callsubr
          -384 -72 rmoveto
          0 69 -31 74 100 34 57 71 66 -41 20 -25 7 vhcurveto
          4 vlineto
          hintmask 1011111010100000
          16 7 38 15 8 callsubr
          22 1 21 19 callsubr
          hintmask 0111111100100000
          -2 callsubr
          -70 25 0 hvcurveto
          475 -316 rmoveto
          187 hlineto
          -2 -79 rlineto
          89 40 callsubr
          -13 -147 -99 -3 94 254 -82 9 rlineto
          0 -89 41 callsubr
          endchar
        </CharString>
        <CharString name="threesuperior">
          -220 290 80 102 70 85 81 hstemhm
          102 203 -91 91 -91 103 hintmask 11100100
          40 321 rmoveto
          0 68 -31 75 100 34 57 71 66 -41 21 -25 7 vhcurveto
          4 vlineto
          hintmask 11101000
          16 7 38 14 8 callsubr
          21 1 22 19 callsubr
          hintmask 11110000
          -2 callsubr
          -71 25 3 callsubr
        </CharString>
        <CharString name="tilde">
          -45 661 82 -37 80 hstemhm
          hintmask 01000000
          150 663 2 callsubr
          hintmask 10000000
          -65 callsubr
          hintmask 01000000
          -40 callsubr
        </CharString>
        <CharString name="tilde.cap">
          -86 746 79 callsubr
          hintmask 01000000
          127 750 15 callsubr
          14 vhcurveto
          hintmask 10000000
          23 125 -47 12 callsubr
          58 callsubr
          -42 -15 vhcurveto
          hintmask 01000000
          21 callsubr
        </CharString>
        <CharString name="two">
          -28 0 99 509 104 hstem
          376 118 vstem
          51 hmoveto
          458 102 hlineto
          -289 -6 64 callsubr
          0 92 110 58 72 vhcurveto
          60 75 64 89 86 vvcurveto
          109 -90 69 -122 -104 -99 -60 -30 -36 vhcurveto
          48 -87 rlineto
          40 63 86 33 61 hhcurveto
          45 30 -19 -46 -79 -78 -91 -61 -73 hvcurveto
          -119 -142 -67 -71 0 vvcurveto
          endchar
        </CharString>
        <CharString name="twosuperior">
          -199 298 77 252 81 hstem
          234 89 vstem
          59 298 -69 callsubr
        </CharString>
        <CharString name="u">
          26 -13 103 -69 -21 585 10 callsubr
          hintmask 10111000
          -71 callsubr
          hintmask 01111000
          -43 callsubr
          hintmask 10111000
          -82 callsubr
          endchar
        </CharString>
        <CharString name="uacute">
          -80 callsubr
          105 67 -66 callsubr
        </CharString>
        <CharString name="ucircumflex">
          -24 callsubr
          239 -93 callsubr
          85 62 -85 callsubr
        </CharString>
        <CharString name="udieresis">
          -24 callsubr
          112 93 hstemhm
          80 116 -54 7 callsubr
          -66 116 hintmask 10111010
          -71 callsubr
          hintmask 01111001
          -43 callsubr
          hintmask 10111010
          -82 callsubr
          hintmask 10110110
          62 92 -81 callsubr
        </CharString>
        <CharString name="ugrave">
          -80 callsubr
          82 136 -47 callsubr
        </CharString>
        <CharString name="underscore">
          -37 -163 82 hstem
          13 -163 rmoveto
          530 82 -530 hlineto
          endchar
        </CharString>
        <CharString name="uni00AD">
          -245 259 99 hstem
          54 242 vstem
          54 259 rmoveto
          242 99 -242 hlineto
          endchar
        </CharString>
        <CharString name="v">
          -98 -28 callsubr
          hstem
          176 hmoveto
          139 hlineto
          173 585 rlineto
          31 callsubr
          -119 -488 55 callsubr
          -117 488 rlineto
          31 callsubr
          endchar
        </CharString>
        <CharString name="w">
          158 -28 callsubr
          hstem
          130 hmoveto
          155 hlineto
          85 430 rlineto
          6 hlineto
          85 -430 rlineto
          156 hlineto
          117 585 51 callsubr
          -76 -507 55 callsubr
          -86 428 rlineto
          -151 hlineto
          -86 -428 rlineto
          -5 hlineto
          -78 507 rlineto
          -116 hlineto
          endchar
        </CharString>
        <CharString name="x">
          -65 -28 callsubr
          hstem
          9 hmoveto
          132 hlineto
          115 236 rlineto
          6 hlineto
          117 -236 rlineto
          132 hlineto
          -182 305 176 280 rlineto
          -128 hlineto
          -113 -215 55 callsubr
          -115 215 rlineto
          -128 hlineto
          176 -279 rlineto
          endchar
        </CharString>
        <CharString name="y">
          -94 -145 -21 751 -20 hstem
          -79 callsubr
          endchar
        </CharString>
        <CharString name="yacute">
          -94 -145 -21 751 -20 248 -20 hstem
          -79 callsubr
          -74 598 -66 callsubr
        </CharString>
        <CharString name="ydieresis">
          -94 -145 -21 751 -20 112 93 hstem
          83 7 callsubr
          vstem
          -79 callsubr
          -116 623 -81 callsubr
        </CharString>
        <CharString name="yen">
          -21 0 219 -81 81 58 80 342 -20 hstemhm
          225 117 hintmask 01111000
          49 277 rmoveto
          470 81 hlineto
          -132 -2 164 343 27 callsubr
          -136 -341 55 callsubr
          -138 341 27 callsubr
          164 -343 -132 2 rlineto
          -220 vmoveto
          176 hlineto
          hintmask 10111000
          -138 117 vlineto
          hintmask 01111000
          138 177 81 -470 vlineto
          endchar
        </CharString>
        <CharString name="z">
          -105 0 92 399 94 hstem
          26 hmoveto
          434 96 hlineto
          -298 -7 64 callsubr
          292 406 rlineto
          84 -415 -97 vlineto
          280 7 rlineto
          -6 vlineto
          -293 -405 rlineto
          endchar
        </CharString>
        <CharString name="zero">
          3 -13 101 523 101 hstem
          52 120 252 119 vstem
          298 -13 rmoveto
          139 106 69 294 293 -106 69 -139 -138 -108 -69 -293 -294 108 -69 138 hvcurveto
          1 101 rmoveto
          -84 -43 52 212 217 45 42 81 79 47 -42 -219 -213 -43 -49 -82 hvcurveto
          endchar
        </CharString>
</ttFont>
